<svg width="204" height="221" viewBox="0 0 204 221" fill="none" xmlns="http://www.w3.org/2000/svg">
<path d="M63.6423 29.7859L59.9916 32.4225L78.8535 44.9972L88.3859 47.2282L101.569 56.5577L82.5042 86.9803V90.8338L86.9662 95.9042L20.4423 137.279L28.7577 148.839L26.1211 150.868L31.5972 154.315L3 176.017L24.9042 207.251L28.7577 205.223L45.1859 218L67.4958 189.2L90.0085 172.975L102.989 182.507L110.087 174.597L129.761 161.008L135.237 153.301L144.769 155.127L157.749 155.735L161.4 153.301L160.386 151.07L154.099 152.085L146.189 150.665L140.104 147.217L135.845 142.755L134.223 138.09L135.845 132.006L142.538 126.327L150.651 123.082L156.532 116.997L163.834 112.332L162.008 110.71V108.682L173.772 99.9606L177.017 98.5408L184.115 97.9324L194.459 102.8L200.949 87.3859L193.445 83.1268L192.634 85.5606L196.487 87.9944L194.459 90.631L187.563 88.4L182.696 87.3859L180.465 83.1268L177.828 82.3155V72.7831L174.989 66.4958L172.352 63.0479L166.47 58.9916L162.414 56.5577L161.4 55.138L159.575 49.2563C157.546 47.3634 153.409 43.5775 153.085 43.5775C152.679 43.5775 147.608 42.7662 147.203 42.7662C146.878 42.7662 144.634 43.307 143.552 43.5775H138.279H136.048V38.7099L133.208 31.8141L124.487 24.107L113.941 22.8901L108.059 25.9324L106.842 27.7577L104.408 29.7859L101.569 24.7155L103.394 22.2817V20.2535L98.5268 23.4986L99.7437 30.5972L93.4563 34.0451L89.6028 41.1437L82.3014 37.2901L80.0704 34.0451L78.8535 29.7859L86.7634 21.4704H96.093L98.1211 20.2535L98.9324 18.4282L98.1211 15.9944L97.3099 12.5465L95.2817 8.08451L94.2676 4.23099C93.7268 3.48732 92.5639 2 92.2394 2H91.2253V4.23099L83.7211 14.9803V17.8197L63.6423 29.7859Z" fill="#263335" stroke="#AECEC4" stroke-width="4"/>
</svg>
