<svg width="90" height="194" viewBox="0 0 90 194" fill="none" xmlns="http://www.w3.org/2000/svg">
<path d="M88.7451 43.8662V150.752L44.9889 194L1.84886 150.752V43.8662L44.9889 0L88.7451 43.8662Z" fill="#008A37"/>
<path d="M22.496 139.858V144.368H17.9968V139.858H22.496ZM13.4976 135.347V139.858H17.9968V135.347H13.4976ZM22.496 144.368V148.879H26.9952V144.368H22.496ZM8.99839 130.837V135.347H13.4976V130.837H8.99839ZM26.9952 148.887V153.397H31.4944V148.887H26.9952ZM31.5024 112.787V117.297H36.0016V112.787H31.5024ZM26.9952 22.5606V27.0711H31.4944V22.5606H26.9952ZM31.5024 67.6737V72.1842H36.0016V67.6737H31.5024ZM31.5024 153.397V157.908H36.0016V153.397H31.5024ZM13.4976 94.7447V90.2343H8.99839V94.7447H13.4976ZM22.496 58.6527V54.1422H17.9968V58.6527H22.496ZM17.9968 54.1422V49.6317H13.4976V54.1422H17.9968ZM26.9952 63.1632V58.6527H22.496V63.1632H26.9952ZM13.4976 49.6317V45.1131H8.99839V49.6317H13.4976ZM22.496 103.766V99.2553H17.9968V103.766H22.496ZM31.5024 112.787V108.276H26.9952V112.787H31.5024ZM17.9968 99.2553V94.7447H13.4976V99.2553H17.9968ZM26.9952 108.276V103.766H22.496V108.276H26.9952ZM31.5024 67.6737V63.1632H26.9952V67.6737H31.5024ZM4.49919 153.397V157.908H8.99839V153.397H4.49919ZM13.4976 31.5816H8.99839V36.0921H13.4976V31.5816ZM13.4976 162.418V166.929H17.9968V162.418H13.4976ZM8.99839 130.837V126.326H4.49919V90.2343H8.99839V85.7237H4.49919V45.1131H8.99839V36.0921H4.49919V40.6026H0V153.389L4.49919 153.397V130.829H8.99839V130.837ZM8.99839 157.908V162.418H13.4976V157.908H8.99839ZM17.9968 166.929V171.439H22.496V166.929H17.9968ZM31.5024 180.469V184.979H36.0016V180.469H31.5024ZM26.9952 175.95V180.46H31.4944V175.95H26.9952ZM22.496 171.439V175.95H26.9952V171.439H22.496ZM31.5024 13.5315H26.9952V18.042H31.4944V13.5315H31.5024ZM31.5024 27.0711V31.5816H36.0016V27.0711H31.5024ZM26.9952 18.042L22.496 18.0501V22.5606H26.9952V18.042ZM36.0016 9.021H31.5024V13.5315H36.0016V9.021ZM22.496 22.5606H17.9968V27.0711H22.496V22.5606ZM17.9968 27.0711H13.4976V31.5816H17.9968V27.0711ZM58.4976 153.397H62.9968V148.887H58.4976V153.397ZM63.0048 22.5606H58.5056V27.0711H63.0048V22.5606ZM62.9968 148.887H67.504V144.368H63.0048L62.9968 148.887ZM53.9984 157.908H58.4976V153.397H53.9984V157.908ZM72.0032 99.2553H67.504V103.766H72.0032V99.2553ZM76.5024 135.347H81.0016V130.837H76.5024V135.347ZM67.504 144.368H72.0032V139.858H67.504V144.368ZM72.0032 139.858H76.5024V135.347H72.0032V139.858ZM58.4976 112.787H53.9984V117.297H58.4976V112.787ZM63.0048 108.276H58.5056V112.787H63.0048V108.276ZM67.504 58.6527H63.0048V63.1632H67.504V58.6527ZM72.0032 54.1422H67.504V58.6527H72.0032V54.1422ZM76.5024 49.6317H72.0032V54.1422H76.5024V49.6317ZM58.4976 27.0711H53.9984V31.5816H58.4976V27.0711ZM67.504 103.766H63.0048V108.276H67.504V103.766ZM76.5024 94.7447H72.0032V99.2553H76.5024V94.7447ZM63.0048 63.1632H58.5056V67.6737H63.0048V63.1632ZM58.4976 67.6737H53.9984V72.1842H58.4976V67.6737ZM53.9984 184.979H58.4976V180.469H53.9984V184.979ZM67.504 171.439H72.0032V166.929H67.504V171.439ZM63.0048 175.95H67.504V171.439H63.0048V175.95ZM76.5024 94.7447H81.0016V90.2343H76.5024V94.7447ZM72.0032 166.929H76.5024V162.418H72.0032V166.929ZM76.5024 162.418H81.0016V157.908H76.5024V162.418ZM85.5008 40.6026V36.0921H81.0016V45.1131H85.5008V85.7157H81.0016V90.2262H85.5008V126.318H81.0016V130.829H85.5008V153.389H90V40.6026H85.5008ZM81.0016 157.908H85.5008V153.389L81.0016 153.397V157.908ZM58.4976 180.469H62.9968V175.958H58.4976V180.469ZM81.0016 36.0921V31.5816H76.5024V36.0921H81.0016ZM76.5024 31.5816V27.0711H72.0032V31.5816H76.5024ZM72.0032 27.0711V22.5606H67.504V27.0711H72.0032ZM76.5024 49.6317H81.0016V45.1131H76.5024V49.6317ZM58.4976 13.5315V9.021H53.9984V13.5315H58.4976ZM67.504 22.5606V18.0501H63.0048V22.5606H67.504ZM49.4992 162.418H53.9984V157.908H49.4992V121.816H53.9984V117.305H49.4992V76.6947H53.9984V72.1842H49.4992V36.0921H53.9984V31.5816H49.4992V9.021H53.9984V4.5105H49.4992V0H40.5008V4.5105H36.0016V9.021H40.5008V31.5816H36.0016V36.0921H40.5008V72.1842H36.0016V76.6947H40.5008V117.297H36.0016V121.808H40.5008V157.9L36.0016 157.908V162.41H40.5008V184.971H36.0016V189.481H40.5008V194H49.4992V189.489H53.9984V184.979H49.4992V162.418ZM63.0048 18.0501V13.5315H58.5056V18.042L63.0048 18.0501Z" fill="#38DB00"/>
</svg>
