<svg width="512" height="512" viewBox="0 0 512 512" fill="none" xmlns="http://www.w3.org/2000/svg">
<g clip-path="url(#clip0_80_4)">
<path d="M469.333 0V42.6667H426.667V0H384V42.6667H341.333V0H298.667V42.6667H256V0H213.333V96C213.333 125.419 237.269 149.333 266.667 149.333H458.667C488.064 149.333 512 125.419 512 96V0H469.333ZM316.779 271.936L200.555 180.971C182.976 167.189 158.379 167.189 140.8 180.971L24.5547 271.915C8.96 284.139 0 302.528 0 322.325V512H341.333V322.325C341.333 302.507 332.373 284.139 316.779 271.936ZM213.333 405.333H128V320H213.333V405.333ZM469.333 192V512H384V322.325C384 289.301 369.088 258.688 343.061 238.315L283.84 191.979H469.333V192Z" fill="#93B1A6"/>
</g>
<defs>
<clipPath id="clip0_80_4">
<rect width="512" height="512" fill="white"/>
</clipPath>
</defs>
</svg>
