<svg width="196" height="197" viewBox="0 0 196 197" fill="none" xmlns="http://www.w3.org/2000/svg">
<path d="M103.888 10.8376L126.917 59.7243C127.876 61.7542 129.724 63.1612 131.866 63.4902L183.364 71.33C188.754 72.149 190.903 79.0858 187.004 83.0687L149.737 121.12C148.19 122.702 147.483 124.977 147.847 127.209L156.646 180.94C157.563 186.561 151.935 190.852 147.112 188.192L101.053 162.824C99.1421 161.767 96.8532 161.767 94.9423 162.824L48.8835 188.192C44.0677 190.845 38.4328 186.561 39.3498 180.94L48.1485 127.209C48.5125 124.977 47.8056 122.702 46.2586 121.12L8.99162 83.0687C5.09273 79.0858 7.24167 72.149 12.6315 71.33L64.1291 63.4902C66.271 63.1612 68.119 61.7542 69.078 59.7243L92.1073 10.8376C94.5153 5.72079 101.473 5.72079 103.888 10.8376Z" stroke="#93B1A6" stroke-width="14" stroke-miterlimit="10" stroke-linecap="round" stroke-linejoin="round"/>
</svg>
