<svg width="502" height="512" viewBox="0 0 502 512" fill="none" xmlns="http://www.w3.org/2000/svg">
<path d="M192 53.3333C192 23.872 215.872 0 245.333 0C274.795 0 298.667 23.872 298.667 53.3333C298.667 82.7947 274.795 106.667 245.333 106.667C215.872 106.667 192 82.7947 192 53.3333ZM309.333 469.333H416V512H74.6667V469.333H181.333V202.197L113.536 300.139L78.4427 275.84L161.707 155.541C173.696 138.261 193.344 127.979 214.336 127.979H276.288C297.259 127.979 316.928 138.261 328.896 155.52L412.181 275.84L377.088 300.139L309.291 202.197V469.312L309.333 469.333ZM224 469.333H266.667V341.333H224V469.333ZM451.563 49.7707L426.667 0L401.771 49.7707L352 74.6667L401.771 99.5627L426.667 149.333L451.563 99.5627L501.333 74.6667L451.563 49.7707ZM128 117.333L85.3333 96L64 53.3333L42.6667 96L0 117.333L42.6667 138.667L64 181.333L85.3333 138.667L128 117.333Z" fill="#93B1A6"/>
</svg>
