<svg width="222" height="221" viewBox="0 0 222 221" fill="none" xmlns="http://www.w3.org/2000/svg">
<path d="M135.332 202.481C133.086 210.21 130.653 216.714 129.717 219H101.953L88.8513 212.766L86.6676 210.896L71.3819 199.364L63.2711 192.818L20.2216 157.909L21.4694 151.675L25.5248 144.506L38.6268 130.169L34.5714 126.74L31.1399 121.442L23.3411 115.208L35.5073 100.247L4 80.6104L10.863 73.1299L15.2303 70.3247L21.1574 66.5844L23.965 64.7143L27.0845 61.9091L28.9563 61.2857L33.9475 54.1169L43.6181 56.2987H46.1137L55.7843 56.6104L58.5918 54.1169L57.0321 52.5584L55.7843 53.1818L53.6006 53.4935H50.4811L46.7376 53.1818L44.8659 52.2468L41.7464 51L39.8746 49.7532L37.379 47.5714L35.5073 45.7013L33.9475 43.2078L33.3236 40.7143V37.9091L34.2595 34.7922L36.7551 32.2987L53.6006 20.1429L60.4636 16.4026L58.5918 14.8442V13.9091L59.5277 12.6623L71.3819 3.93506L74.5015 3.31169L77.309 3L79.4927 3.31169L89.4752 7.67532L91.035 7.05195L106.009 12.974L127.222 19.2078C137.454 22.9481 145.211 29.2857 147.811 31.987H149.994L151.866 29.1818L152.802 28.8701L153.738 28.2468L154.985 29.1818L154.673 30.7403L152.178 33.5455V36.039C159.914 42.7714 168.503 52.3506 171.831 56.2987L172.455 57.5455L173.703 57.8571L176.822 62.2208L180.878 62.8442L182.125 62.5325V61.9091L181.813 61.2857L183.685 60.3506H185.557H187.117L187.429 61.2857L186.493 63.1558L188.052 64.7143L192.108 61.2857L194.604 61.9091L200.219 67.2078L201.155 67.5195H202.09L202.714 69.0779V70.9481L189.612 85.9091L191.484 86.8442L201.155 75L204.274 76.5584L208.953 84.6623V85.9091L209.889 87.1558H211.137C213.882 92.1429 216.856 98.5844 218 101.182H210.201L189.924 87.4675L192.108 91.8312L191.484 94.9481L180.878 109.909L184.621 116.143L193.98 122.377L203.65 130.169L188.364 157.909C186.118 154.169 183.477 152.818 182.437 152.61L166.84 153.234L153.114 177.234L135.332 202.481Z" fill="#AECEC4" fill-opacity="0.2" stroke="#AECEC4" stroke-width="4"/>
</svg>
