<svg width="157" height="188" viewBox="0 0 157 188" fill="none" xmlns="http://www.w3.org/2000/svg">
<path d="M154.1 179.877L154.077 179.819L154.049 179.764L130.184 132.033L130.172 132.009L130.159 131.985C129.335 130.474 128.999 129.756 128.667 129.044C128.5 128.688 128.334 128.334 128.109 127.882L128.108 127.88L98.5909 69.053V26.7052H109.957C112.446 26.7052 114.57 24.581 114.57 22.0924V6.11288C114.57 3.62425 112.446 1.5 109.957 1.5H46.0396C43.5509 1.5 41.4267 3.62425 41.4267 6.11288V22.0924C41.4267 24.581 43.5509 26.7052 46.0396 26.7052H57.4062V68.8466L27.8883 127.882C27.6626 128.334 27.4736 128.735 27.2839 129.137C26.9055 129.941 26.5245 130.749 25.8435 131.975L25.8277 132.004L25.8131 132.033L1.94762 179.764L1.91972 179.819L1.89655 179.877C1.33302 181.286 1.31338 182.824 2.21055 184.319C3.16236 185.905 4.75391 186.5 6.19463 186.5H150.01C151.613 186.5 153.063 185.574 153.908 184.447C154.494 183.665 154.632 182.763 154.595 181.997C154.559 181.234 154.347 180.494 154.1 179.877ZM39.786 130.347C39.3647 129.932 38.8614 129.515 38.2749 129.141L66.0585 72.1543L66.0652 72.1408L66.0755 72.1203C66.2905 71.6911 66.6319 71.0094 66.6319 70.0308V22.0924C66.6319 19.6037 64.5077 17.4795 62.019 17.4795H50.6524V10.7258H105.345V17.4795H93.978C91.4894 17.4795 89.3651 19.6037 89.3651 22.0924V70.0308C89.3651 70.7857 89.6885 71.6543 89.9385 72.1543L89.9395 72.1562L118.609 129.292C118.548 129.337 118.488 129.381 118.431 129.423C118.397 129.448 118.364 129.473 118.331 129.496C117.94 129.783 117.669 129.972 117.38 130.117L117.224 130.195L117.091 130.306C116.458 130.833 116.08 131.123 115.662 131.314C115.28 131.489 114.778 131.619 113.9 131.619C113.031 131.619 112.589 131.492 112.239 131.324C111.897 131.161 111.608 130.951 111.113 130.592C110.972 130.49 110.816 130.376 110.636 130.248C110.559 130.19 110.479 130.129 110.396 130.067C108.733 128.81 106.133 126.846 101.864 126.846C97.5316 126.846 95.1149 128.699 93.4863 129.947C93.3445 130.056 93.2086 130.16 93.078 130.258L93.0472 130.281L93.0177 130.306C92.384 130.834 91.9978 131.131 91.5928 131.324C91.2314 131.497 90.7849 131.619 90.035 131.619C89.2851 131.619 88.8386 131.497 88.4772 131.324C88.0722 131.131 87.686 130.834 87.0523 130.306L87.0228 130.281L86.992 130.258C86.91 130.197 86.8255 130.133 86.7384 130.067C85.0747 128.81 82.4748 126.846 78.206 126.846C73.8737 126.846 71.457 128.699 69.8284 129.947C69.6866 130.056 69.5507 130.16 69.4201 130.258L69.3893 130.281L69.3598 130.306C68.726 130.834 68.3399 131.131 67.9349 131.324C67.5735 131.497 67.127 131.619 66.3771 131.619C65.6272 131.619 65.1806 131.497 64.8193 131.324C64.4142 131.131 64.0281 130.834 63.3944 130.306L63.3648 130.281L63.3341 130.258C63.2521 130.197 63.1676 130.133 63.0805 130.067C61.4167 128.81 58.8169 126.846 54.5481 126.846C50.2793 126.846 47.6795 128.81 46.0157 130.067C45.9287 130.133 45.8442 130.197 45.7621 130.258L45.7314 130.281L45.7019 130.306C45.0681 130.834 44.682 131.131 44.2769 131.324C43.9156 131.497 43.469 131.619 42.7191 131.619C41.9692 131.619 41.5227 131.497 41.1614 131.324C40.767 131.136 40.3906 130.85 39.786 130.347ZM121.603 137.83C121.635 137.806 121.667 137.782 121.699 137.758L141.362 177.274H13.5971L33.2608 137.758C33.2924 137.782 33.3244 137.806 33.3567 137.83C35.0205 139.087 37.6203 141.052 41.889 141.052C46.2213 141.052 48.6381 139.199 50.2666 137.95C50.4085 137.841 50.5444 137.737 50.675 137.639L50.7058 137.616L50.7353 137.591C51.3691 137.063 51.7552 136.767 52.1602 136.573C52.5216 136.4 52.9681 136.279 53.718 136.279C54.4679 136.279 54.9144 136.4 55.2758 136.573C55.6808 136.767 56.067 137.063 56.7007 137.591L56.7303 137.616L56.761 137.639C56.843 137.701 56.9275 137.764 57.0146 137.83C58.6784 139.087 61.2782 141.052 65.547 141.052C69.8157 141.052 72.4156 139.087 74.0793 137.83C74.1664 137.764 74.2509 137.701 74.3329 137.639L74.3637 137.616L74.3932 137.591C75.027 137.063 75.4131 136.767 75.8182 136.573C76.1795 136.4 76.626 136.279 77.3759 136.279C78.1258 136.279 78.5724 136.4 78.9337 136.573C79.3388 136.767 79.7249 137.063 80.3586 137.591L80.3882 137.616L80.4189 137.639C80.501 137.701 80.5855 137.764 80.6725 137.83C82.3363 139.087 84.9361 141.052 89.2049 141.052C93.5372 141.052 95.9539 139.199 97.5825 137.95C97.7244 137.841 97.8602 137.737 97.9909 137.639L98.0216 137.616L98.0512 137.591C98.6849 137.063 99.071 136.767 99.4761 136.573C99.8374 136.4 100.284 136.279 101.034 136.279C101.778 136.279 102.236 136.398 102.64 136.583C103.101 136.795 103.541 137.108 104.298 137.65C104.376 137.708 104.456 137.768 104.538 137.83C106.202 139.087 108.802 141.052 113.07 141.052C117.339 141.052 119.939 139.087 121.603 137.83Z" fill="#93B1A6" stroke="#93B1A6" stroke-width="3"/>
</svg>
