<svg width="305" height="305" viewBox="0 0 305 305" fill="none" xmlns="http://www.w3.org/2000/svg">
<path d="M241.458 50.8333H227.479C224.53 36.4909 216.726 23.6038 205.383 14.3441C194.04 5.08448 179.851 0.0184846 165.208 0H139.792C125.149 0.0184846 110.961 5.08448 99.6174 14.3441C88.2744 23.6038 80.4704 36.4909 77.5208 50.8333H63.5417C46.6956 50.8535 30.5452 57.5545 18.6332 69.4665C6.72121 81.3785 0.0201836 97.5289 4.54485e-06 114.375V152.5H305V114.375C304.98 97.5289 298.279 81.3785 286.367 69.4665C274.455 57.5545 258.304 50.8535 241.458 50.8333ZM104.005 50.8333C106.624 43.4255 111.468 37.0078 117.874 32.4582C124.28 27.9086 131.935 25.4492 139.792 25.4167H165.208C173.065 25.4492 180.721 27.9086 187.126 32.4582C193.532 37.0078 198.376 43.4255 200.995 50.8333H104.005Z" fill="#93B1A6"/>
<path d="M165.208 190.625C165.208 193.995 163.869 197.228 161.486 199.611C159.103 201.994 155.87 203.333 152.5 203.333C149.13 203.333 145.897 201.994 143.514 199.611C141.131 197.228 139.792 193.995 139.792 190.625V177.917H0V241.458C0.020179 258.304 6.72121 274.455 18.6332 286.367C30.5452 298.279 46.6956 304.98 63.5417 305H241.458C258.304 304.98 274.455 298.279 286.367 286.367C298.279 274.455 304.98 258.304 305 241.458V177.917H165.208V190.625Z" fill="#93B1A6"/>
</svg>
