<svg width="70" height="70" viewBox="0 0 70 70" fill="none" xmlns="http://www.w3.org/2000/svg">
<path d="M68.7165 26.3274C67.5134 21.4995 65.2323 17.859 60.3731 17.859H54.1076V25.265C54.1076 31.0148 49.2328 35.8584 43.6705 35.8584H26.9836C22.4212 35.8584 18.6401 39.7645 18.6401 44.3424V60.2481C18.6401 64.7792 22.5775 67.4354 26.9836 68.7322C32.2646 70.2791 37.3426 70.5603 43.6705 68.7322C47.8735 67.5135 52.014 65.0605 52.014 60.2481V53.889H35.3427V51.7641H60.3731C65.2323 51.7641 67.0291 48.3736 68.7165 43.2956C70.4665 38.0614 70.3883 33.0303 68.7165 26.3274ZM44.7173 58.1232C46.4517 58.1232 47.8579 59.545 47.8579 61.295C47.8579 63.0605 46.4517 64.4824 44.7173 64.4824C42.9987 64.4824 41.5768 63.0449 41.5768 61.295C41.5924 59.5294 42.9987 58.1232 44.7173 58.1232ZM26.218 33.7647H42.9049C47.5454 33.7647 51.2484 29.9367 51.2484 25.2806V9.35926C51.2484 4.82816 47.436 1.43765 42.9049 0.672054C37.3113 -0.24979 31.2334 -0.202916 26.218 0.687679C19.1557 1.93764 17.8745 4.54692 17.8745 9.37488V15.734H34.5771V17.859H11.6091C6.74989 17.859 2.50003 20.7807 1.17195 26.3274C-0.359246 32.6866 -0.421743 36.6552 1.17195 43.2956C2.35941 48.2329 5.18744 51.7641 10.0466 51.7641H15.7808V44.1393C15.7808 38.6239 20.5463 33.7647 26.218 33.7647ZM25.1711 11.4842C23.4368 11.4842 22.0306 10.0624 22.0306 8.31242C22.0462 6.54685 23.4368 5.12503 25.1711 5.12503C26.8898 5.12503 28.3116 6.56248 28.3116 8.31242C28.3116 10.0624 26.9054 11.4842 25.1711 11.4842Z" fill="#93B1A6"/>
</svg>
