<svg width="63" height="66" viewBox="0 0 63 66" fill="none" xmlns="http://www.w3.org/2000/svg">
<path d="M62.2192 9.53702L41.8314 32.4225C41.7728 32.4839 41.7025 32.5328 41.6245 32.5662C41.5465 32.5996 41.4626 32.6168 41.3778 32.6168C41.2929 32.6168 41.209 32.5996 41.131 32.5662C41.0531 32.5328 40.9827 32.4839 40.9241 32.4225L30.5158 21.6975C30.4288 21.587 30.3816 21.4504 30.3816 21.3098C30.3816 21.1691 30.4288 21.0325 30.5158 20.922L33.8973 16.5C33.9556 16.4215 34.0315 16.3577 34.1188 16.3138C34.2062 16.2699 34.3026 16.247 34.4004 16.247C34.4981 16.247 34.5946 16.2699 34.6819 16.3138C34.7693 16.3577 34.8451 16.4215 34.9035 16.5L40.6932 22.9515C40.752 23.0182 40.8244 23.0717 40.9054 23.1083C40.9865 23.1449 41.0744 23.1638 41.1633 23.1638C41.2523 23.1638 41.3402 23.1449 41.4212 23.1083C41.5023 23.0717 41.5746 23.0182 41.6334 22.9515L57.9635 0.693015C58.0073 0.627616 58.0331 0.551762 58.0381 0.473178C58.0431 0.394595 58.0272 0.31609 57.9919 0.245661C57.9567 0.175232 57.9035 0.115394 57.8377 0.0722434C57.7718 0.0290926 57.6957 0.00417042 57.6171 1.52588e-05L0.478356 1.52588e-05C0.351488 1.52588e-05 0.229816 0.0504285 0.140107 0.140165C0.050398 0.229901 0 0.351609 0 0.478515V65.5215C0 65.6484 0.050398 65.7701 0.140107 65.8599C0.229816 65.9496 0.351488 66 0.478356 66H62.5161C62.643 66 62.7647 65.9496 62.8544 65.8599C62.9441 65.7701 62.9945 65.6484 62.9945 65.5215V9.90001C63.0096 9.80455 62.9934 9.70673 62.9481 9.62134C62.9028 9.53594 62.831 9.46759 62.7434 9.42661C62.6559 9.38563 62.5574 9.37424 62.4629 9.39415C62.3683 9.41407 62.2828 9.46421 62.2192 9.53702ZM17.5672 58.7565C13.4817 58.9388 9.48651 57.5178 6.43306 54.7965C6.33894 54.6861 6.28725 54.5457 6.28725 54.4005C6.28725 54.2554 6.33894 54.115 6.43306 54.0045L8.85782 50.6055C8.90776 50.5352 8.97202 50.4763 9.04637 50.4326C9.12073 50.3889 9.20349 50.3615 9.2892 50.3522C9.37492 50.3428 9.46165 50.3517 9.54366 50.3783C9.62568 50.4049 9.70114 50.4486 9.76505 50.5065C11.9799 52.5622 14.8922 53.7004 17.9136 53.691C21.0971 53.691 22.6477 52.2225 22.6477 50.6715C22.6477 45.8535 6.97739 49.1535 6.97739 38.907C6.97739 34.3695 10.9032 30.657 17.3033 30.657C21.0023 30.5252 24.6238 31.7386 27.4972 34.0725C27.6004 34.1851 27.6576 34.3323 27.6576 34.485C27.6576 34.6377 27.6004 34.7849 27.4972 34.8975L25.0064 38.1975C24.9565 38.2628 24.8939 38.3173 24.8225 38.3578C24.751 38.3983 24.672 38.4239 24.5904 38.4332C24.5088 38.4424 24.4261 38.4351 24.3474 38.4116C24.2686 38.3881 24.1955 38.349 24.1322 38.2965C22.0203 36.6116 19.3942 35.703 16.693 35.7225C14.2022 35.7225 12.8166 36.828 12.8166 38.4615C12.8166 42.7845 28.4539 39.897 28.4539 50.0115C28.4704 54.9945 24.924 58.7565 17.5672 58.7565ZM51.7614 49.3185C51.7614 49.4585 51.7058 49.5929 51.6068 49.6919C51.5078 49.7909 51.3735 49.8465 51.2335 49.8465H36.9323C36.9092 49.8464 36.8863 49.8511 36.8652 49.8605C36.844 49.8698 36.825 49.8834 36.8095 49.9005C36.7939 49.9176 36.7821 49.9378 36.7749 49.9598C36.7676 49.9818 36.7651 50.005 36.7674 50.028C37.0011 51.3639 37.7233 52.565 38.7935 53.3976C39.8637 54.2302 41.2052 54.6348 42.5571 54.5325C44.3336 54.4848 46.0559 53.9105 47.5057 52.8825C47.5623 52.8383 47.6274 52.8061 47.6969 52.7879C47.7664 52.7697 47.8389 52.7659 47.9099 52.7767C47.981 52.7875 48.049 52.8127 48.11 52.8508C48.171 52.8888 48.2235 52.9389 48.2644 52.998L50.0129 55.5555C50.0878 55.6691 50.1175 55.8066 50.0961 55.9409C50.0748 56.0753 50.0039 56.1968 49.8974 56.2815C47.5919 57.9596 44.7972 58.8296 41.9468 58.7565C40.5212 58.8359 39.0948 58.6162 37.7591 58.1117C36.4233 57.6071 35.2078 56.8288 34.1905 55.8267C33.1731 54.8246 32.3765 53.6208 31.8516 52.2926C31.3267 50.9644 31.0852 49.5411 31.1426 48.114C31.1022 46.7217 31.3446 45.3357 31.8552 44.0399C32.3658 42.744 33.134 41.5653 34.1132 40.575C35.0924 39.5847 36.2623 38.8034 37.5521 38.2785C38.8419 37.7536 40.2247 37.4959 41.6169 37.521C47.6541 37.521 51.7449 42.042 51.7449 48.6585L51.7614 49.3185ZM41.6334 41.7615C40.4209 41.7249 39.2389 42.1457 38.3222 42.9404C37.4054 43.7352 36.821 44.8457 36.6849 46.0515C36.6826 46.0745 36.6852 46.0978 36.6924 46.1197C36.6997 46.1417 36.7114 46.1619 36.727 46.179C36.7425 46.1961 36.7615 46.2098 36.7827 46.2191C36.8039 46.2284 36.8268 46.2331 36.8499 46.233H46.45C46.4731 46.2331 46.496 46.2284 46.5172 46.2191C46.5383 46.2098 46.5573 46.1961 46.5729 46.179C46.5884 46.1619 46.6002 46.1417 46.6074 46.1197C46.6147 46.0978 46.6172 46.0745 46.6149 46.0515C46.5179 44.8239 45.94 43.6842 45.007 42.8808C44.074 42.0773 42.8615 41.675 41.6334 41.7615Z" fill="#43B02A" fill-opacity="0.9"/>
</svg>
