<svg width="207" height="182" viewBox="0 0 207 182" fill="none" xmlns="http://www.w3.org/2000/svg">
<path d="M3.62501 58.0025L100.295 103.931C101.153 104.337 102.086 104.546 103.015 104.546C103.944 104.546 104.877 104.337 105.735 103.931L202.416 58.0025C204.628 56.9541 206.039 54.7228 206.039 52.275C206.039 49.8273 204.628 47.596 202.416 46.5476L105.739 0.615659C104.018 -0.20522 102.015 -0.20522 100.295 0.615659L3.62501 46.5476C1.41237 47.596 0.00195312 49.8273 0.00195312 52.275C0.00195312 54.7228 1.41237 56.9541 3.62501 58.0025ZM103.015 13.3654L184.909 52.275L103.015 91.181L21.1284 52.275L103.015 13.3654Z" fill="#93B1A6"/>
<path d="M205.426 88.2782C203.919 85.114 200.131 83.7671 196.971 85.2708L103.014 129.904L9.06808 85.2708C5.8965 83.7671 2.12419 85.114 0.613031 88.2782C-0.886938 91.4497 0.460047 95.2258 3.62416 96.7332L100.294 142.661C101.152 143.068 102.085 143.273 103.014 143.273C103.943 143.273 104.876 143.068 105.734 142.661L202.415 96.7295C205.579 95.2295 206.926 91.446 205.426 88.2782Z" fill="#93B1A6"/>
<path d="M205.426 127.005C203.919 123.833 200.131 122.501 196.971 123.998L103.014 168.631L9.06808 123.998C5.8965 122.501 2.12419 123.833 0.613031 127.005C-0.886938 130.173 0.460047 133.949 3.62416 135.46L100.294 181.388C101.152 181.795 102.085 182 103.014 182C103.943 182 104.876 181.795 105.734 181.388L202.415 135.456C205.579 133.956 206.926 130.169 205.426 127.005Z" fill="#93B1A6"/>
</svg>
