<svg width="324" height="326" viewBox="0 0 324 326" fill="none" xmlns="http://www.w3.org/2000/svg">
<path d="M138.27 132.465L194.794 75.6048L248.794 129.938L192.283 186.812L138.27 132.465ZM119.181 151.672L11.1806 260.338C5.84161 265.712 2.20598 272.558 0.733258 280.011C-0.739465 287.464 0.016836 295.189 2.90656 302.209C5.79628 309.229 10.6897 315.23 16.9682 319.452C23.2468 323.675 30.6286 325.93 38.1806 325.932C43.1979 325.948 48.1684 324.96 52.8034 323.027C57.4384 321.094 61.6455 318.254 65.1806 314.672L173.181 206.005L119.181 151.672ZM251.94 234.992L269.935 271.151L287.931 234.992L323.935 216.817L287.931 198.697L269.935 162.484L251.94 198.697L215.935 216.817L251.94 234.992ZM89.9396 72.5078L107.935 108.667L125.931 72.4399L161.935 54.3333L125.931 36.2268L107.935 0L89.9396 36.2268L53.9351 54.3333L89.9396 72.5078ZM260.931 63.4613L276.685 95.0833L292.44 63.3934L323.935 47.5417L292.44 31.6899L276.685 0L260.931 31.6899L229.435 47.5417L260.931 63.4613Z" fill="#93B1A6"/>
</svg>
