<svg width="72" height="70" viewBox="0 0 72 70" fill="none" xmlns="http://www.w3.org/2000/svg">
<path d="M69.9733 8.56506H46.0873V12.9857H53.1283V19.9792H46.0873V22.2074H53.1283V29.2097H46.0873V31.5003H53.1283V38.1224H46.0873V40.7754H53.1283V47.4124H46.0873V50.0654H53.1283V56.7409H46.0873V61.6102H69.9733C70.3506 61.4973 70.6655 61.0517 70.918 60.2793C71.1705 59.5009 71.3013 58.8681 71.3013 58.3898V9.37314C71.3013 8.99287 71.1705 8.76411 70.918 8.6839C70.6655 8.60666 70.3506 8.56506 69.9733 8.56506ZM66.8746 56.735H55.4159V50.0654H66.8746V56.7409V56.735ZM66.8746 47.4124H55.4159V40.7724H66.8746V47.4124ZM66.8746 38.1194H55.4159V31.527H66.8746V38.1194ZM66.8746 29.2068H55.4159V22.2133H66.8746V29.2068ZM66.8746 19.9406H55.4159V12.9887H66.8746V19.9851V19.9406ZM0 7.46286V62.7243L42.0677 70V0L0 7.48663V7.46286ZM24.9346 49.2662C24.7742 48.8324 24.0196 46.9905 22.6827 43.7314C21.3488 40.4753 20.5437 38.5799 20.309 38.0392H20.2347L15.7219 48.779L9.69103 48.372L16.8449 35.003L10.2941 21.634L16.4439 21.3102L20.508 31.7706H20.5882L25.1783 20.8348L31.533 20.4338L23.9661 34.902L31.7647 49.6613L24.9346 49.2602V49.2662Z" fill="#93B1A6"/>
</svg>
