<svg width="243" height="243" viewBox="0 0 243 243" fill="none" xmlns="http://www.w3.org/2000/svg">
<path fill-rule="evenodd" clip-rule="evenodd" d="M121.5 243C188.603 243 243 188.603 243 121.5C243 54.3975 188.603 0 121.5 0C54.3975 0 0 54.3975 0 121.5C0 188.603 54.3975 243 121.5 243ZM77.9178 198.166C89.7159 205.389 103.506 209 119.289 209C128.587 209 136.322 207.822 142.495 205.467C148.667 203.033 153.785 200.05 157.848 196.517C161.989 192.984 165.466 189.529 168.279 186.153V206.645H195V117.143L120.696 116.789V144.111H153.043L151.285 152.355C150.816 154.867 149.8 157.379 148.237 159.892C146.675 162.404 144.643 164.72 142.143 166.84C139.721 168.96 136.83 170.687 133.47 172.021C130.189 173.356 126.477 174.024 122.336 174.024C117.883 174.024 113.429 173.278 108.976 171.786C104.522 170.216 100.459 167.507 96.7869 163.66C93.1146 159.813 90.1456 154.435 87.8798 147.526C85.692 140.617 84.5981 131.746 84.5981 120.911C84.5981 107.8 86.239 97.358 89.5205 89.5854C92.8021 81.7344 97.1776 76.0817 102.647 72.6272C108.116 69.1727 114.132 67.4454 120.696 67.4454C126.399 67.4454 131.361 68.6624 135.58 71.0962C139.877 73.53 143.315 76.8275 145.893 80.9885C148.55 85.071 150.425 89.6248 151.519 94.6494H193.359C193.125 86.8768 191.289 79.3792 187.851 72.1561C184.413 64.8546 179.53 58.3383 173.201 52.6071C166.95 46.8757 159.449 42.3613 150.699 39.064C142.026 35.688 132.337 34 121.633 34C105.694 34 91.6692 37.6115 79.5586 44.8345C67.448 52.0574 57.9939 62.2638 51.1963 75.4536C44.3988 88.6433 41 104.188 41 122.089C41 139.518 44.2035 154.749 50.6104 167.782C57.0953 180.815 66.1979 190.943 77.9178 198.166Z" fill="#183D3D"/>
</svg>
