<svg width="72" height="70" viewBox="0 0 72 70" fill="none" xmlns="http://www.w3.org/2000/svg">
<path fill-rule="evenodd" clip-rule="evenodd" d="M35.8848 0C16.0674 0 0 16.0644 0 35.8848C0 51.7399 10.281 65.1907 24.5392 69.9365C26.3335 70.2684 26.9914 69.159 26.9914 68.2111C26.9914 67.3558 26.9585 64.5299 26.9435 61.5305C16.9616 63.7015 14.8533 57.2961 14.8533 57.2961C13.2206 53.1484 10.8701 52.0449 10.8701 52.0449C7.61356 49.8171 11.1153 49.8649 11.1153 49.8649C14.7188 50.1191 16.6147 53.5641 16.6147 53.5641C19.8144 59.0485 25.0087 57.4636 27.0572 56.5455C27.3801 54.2249 28.3101 52.643 29.3358 51.7459C21.3664 50.8398 12.9873 47.7627 12.9873 34.0128C12.9873 30.0954 14.3898 26.8927 16.6864 24.3807C16.3126 23.4746 15.0836 19.8264 17.0333 14.8832C17.0333 14.8832 20.0477 13.9203 26.9046 18.5614C29.7665 17.766 32.8346 17.3682 35.8848 17.3533C38.935 17.3682 42.0062 17.766 44.874 18.5614C51.722 13.9173 54.7333 14.8832 54.7333 14.8832C56.6861 19.8264 55.457 23.4746 55.0862 24.3807C57.3858 26.8927 58.7793 30.0954 58.7793 34.0128C58.7793 47.7956 50.3853 50.8308 42.3949 51.719C43.6808 52.8314 44.8291 55.0174 44.8291 58.3637C44.8291 63.1662 44.7872 67.0298 44.7872 68.2111C44.7872 69.165 45.4332 70.2864 47.2513 69.9335C61.5036 65.1818 71.7726 51.7369 71.7726 35.8878C71.7696 16.0674 55.7022 0 35.8848 0Z" fill="#93B1A6"/>
</svg>
