<svg width="52" height="45" viewBox="0 0 52 45" fill="none" xmlns="http://www.w3.org/2000/svg">
<path d="M1.60714 9.64286H43.3929C44.2808 9.64286 45 8.92366 45 8.03571V1.60714C45 0.719196 44.2808 0 43.3929 0H1.60714C0.719196 0 0 0.719196 0 1.60714V8.03571C0 8.92366 0.719196 9.64286 1.60714 9.64286ZM49.8214 17.6786H8.03571C7.14777 17.6786 6.42857 18.3978 6.42857 19.2857V25.7143C6.42857 26.6022 7.14777 27.3214 8.03571 27.3214H49.8214C50.7094 27.3214 51.4286 26.6022 51.4286 25.7143V19.2857C51.4286 18.3978 50.7094 17.6786 49.8214 17.6786ZM43.3929 35.3571H1.60714C0.719196 35.3571 0 36.0763 0 36.9643V43.3929C0 44.2808 0.719196 45 1.60714 45H43.3929C44.2808 45 45 44.2808 45 43.3929V36.9643C45 36.0763 44.2808 35.3571 43.3929 35.3571Z" fill="#93B1A6"/>
</svg>
