<svg width="132" height="182" viewBox="0 0 132 182" fill="none" xmlns="http://www.w3.org/2000/svg">
<path d="M112.84 0C104.81 0 98.28 6.53016 98.28 14.56C98.28 22.5898 104.81 29.12 112.84 29.12C120.87 29.12 127.4 22.5898 127.4 14.56C127.4 6.53016 120.87 0 112.84 0ZM12.74 10.92C5.7148 10.92 0 16.6348 0 23.66C0 30.6852 5.7148 36.4 12.74 36.4C19.7652 36.4 25.48 30.6852 25.48 23.66C25.48 16.6348 19.7652 10.92 12.74 10.92ZM69.16 25.3094C41.9292 25.3094 17.1568 42.3738 7.52172 67.7737C6.90656 69.3935 7.51586 71.2214 8.97914 72.1459C10.4424 73.0705 12.3529 72.8365 13.5505 71.5843C25.1257 59.4777 46.4355 51.9553 69.16 51.9553C91.8845 51.9553 113.194 59.4777 124.77 71.5843C125.479 72.3269 126.432 72.7076 127.4 72.7076C128.073 72.7076 128.74 72.5209 129.341 72.1459C130.804 71.2214 131.421 69.3935 130.805 67.7737C121.167 42.3738 96.3908 25.3094 69.16 25.3094ZM11.3608 109.15C10.5504 109.05 9.71078 109.219 8.97914 109.683C7.51586 110.608 6.90309 112.436 7.51461 114.056C17.1533 139.456 41.9292 156.52 69.16 156.52C96.3908 156.52 121.167 139.456 130.798 114.056C131.413 112.436 130.797 110.608 129.334 109.683C127.874 108.759 125.96 108.986 124.762 110.245C113.187 122.352 91.8774 129.874 69.1529 129.874C46.4284 129.874 25.1257 122.352 13.5505 110.245C12.9517 109.617 12.1711 109.25 11.3608 109.15ZM20.02 149.24C10.9892 149.24 3.64 156.586 3.64 165.62C3.64 174.654 10.9892 182 20.02 182C29.0508 182 36.4 174.651 36.4 165.62C36.4 156.589 29.0508 149.24 20.02 149.24Z" fill="#93B1A6"/>
</svg>
