<svg width="65" height="66" viewBox="0 0 65 66" fill="none" xmlns="http://www.w3.org/2000/svg">
<path fill-rule="evenodd" clip-rule="evenodd" d="M64.0438 39.9585C63.8001 38.3782 62.4728 37.3433 60.9288 37.2734C60.3699 37.248 59.8023 37.3065 59.2451 37.3774C58.5719 37.463 57.9069 37.6146 57.2353 37.7148C56.7712 37.7841 56.3006 37.8161 55.837 37.8637L55.8256 37.8036C56.6911 36.1692 57.5928 34.5526 58.4116 32.8949C59.0393 31.6233 59.5765 30.3057 60.1316 28.9989C61.0501 26.8338 61.7839 24.6015 62.3915 22.3329C62.9737 20.1607 63.4719 17.9646 63.6284 15.7112C63.6913 14.8111 63.7346 13.9073 63.7297 13.0061C63.7254 12.2875 63.6479 11.5677 63.5759 10.8512C63.4947 10.0302 63.2466 9.25201 62.9033 8.50304C62.4506 7.51631 61.7487 6.70668 61.01 5.93767C60.4186 5.32191 59.7682 4.76086 59.1232 4.20034C58.2036 3.40046 57.1698 2.76196 56.0959 2.19494C54.8758 1.55049 53.5933 1.04629 52.2562 0.705653C51.4477 0.499318 50.6207 0.346057 49.8019 0.182506C49.5073 0.122934 49.2121 0 48.9175 0H43.3714C43.171 0 42.9723 0.103438 42.7703 0.126184C41.4423 0.274029 40.1301 0.52423 38.8559 0.919028C38.3793 1.06687 37.9439 0.973725 37.4911 0.932025C37.144 0.900073 36.8028 0.806925 36.4557 0.789595C35.1332 0.723525 33.8091 0.626585 32.4871 0.640666C31.2204 0.653663 29.9667 0.862164 28.7406 1.21039C27.7143 1.50175 26.7103 1.85755 25.7907 2.39695C25.397 2.62765 25.0851 2.58433 24.6778 2.46681C23.3093 2.07201 21.931 1.70104 20.5408 1.38964C19.6743 1.19576 18.7835 1.09937 17.8986 1.00676C17.0505 0.918486 16.1959 0.865413 15.3435 0.847542C14.5106 0.82967 13.6717 0.830212 12.8426 0.903864C11.5217 1.02138 10.2257 1.29 8.96607 1.72324C7.56722 2.20415 6.28481 2.90114 5.12857 3.81637C3.95501 4.74515 3.01378 5.87918 2.25668 7.17405C1.45896 8.5404 0.911987 10.0032 0.571888 11.5396C0.387757 12.3719 0.271322 13.2276 0.145138 14.073C0.105604 14.3362 0.54156 14.5994 0 14.8615V18.5409C0.54156 18.7856 0.112644 19.0299 0.144055 19.2752C0.219332 19.865 0.285944 20.4596 0.385591 21.045C0.543185 21.9716 0.730023 22.8955 0.920652 23.8162C1.18656 25.1024 1.4633 26.3875 1.7579 27.6672C1.97236 28.5987 2.21661 29.5248 2.47222 30.446C2.86269 31.8529 3.24719 33.2626 3.68857 34.6539C4.09853 35.9466 4.56806 37.2209 5.0338 38.4952C5.6788 40.258 6.45106 41.9639 7.37713 43.5988C8.1781 45.0145 9.09334 46.3402 10.3211 47.4309C11.1301 48.1496 12.0308 48.702 13.0792 48.9782C13.9029 49.1948 14.7402 49.2208 15.5834 49.048C16.5609 48.8476 17.4263 48.4269 18.1959 47.7965C18.2842 47.7239 18.3811 47.6687 18.4856 47.8019C18.8837 48.3061 19.4166 48.6424 19.9738 48.9332C21.4777 49.7174 23.1165 49.9524 24.7813 50.0483C25.1842 50.0716 25.5914 50.0136 25.9976 50.0023C26.7888 49.9806 27.5578 49.8262 28.3144 49.6075C28.7108 49.4926 29.098 49.347 29.5015 49.211C29.5226 49.6405 29.5497 50.0542 29.5621 50.468L29.6185 52.7241C29.6288 53.0675 29.6423 53.4119 29.6742 53.7536C29.756 54.6348 29.8362 55.5164 29.9412 56.3948C30.0143 57.0003 30.0902 57.6106 30.2326 58.2015C30.5191 59.3945 30.9074 60.5562 31.4013 61.6826C31.886 62.7879 32.583 63.7211 33.5134 64.4906C34.7156 65.4849 36.1248 65.909 37.6466 65.9875C38.2758 66.0205 38.923 65.9896 39.5426 65.877C40.5244 65.6988 41.5041 65.4746 42.4599 65.1865C44.4047 64.5995 46.0857 63.5857 47.3416 61.9474C48.0564 61.0138 48.6435 60.0038 49.0204 58.8887C49.3313 57.9675 49.6242 57.0371 49.8571 56.0943C50.0412 55.3512 50.1322 54.5849 50.2443 53.8262C50.3185 53.3242 50.3629 52.8173 50.4095 52.3115C50.4853 51.4899 50.5628 50.6689 50.6175 49.8457C50.6554 49.2728 50.6537 48.6971 50.6765 48.123C50.6835 47.9481 50.7117 47.7743 50.7279 47.5999C50.7431 47.4385 50.8243 47.3827 50.989 47.3854C51.569 47.3941 52.1501 47.4093 52.7285 47.3833C53.3767 47.354 54.0309 47.3264 54.6689 47.2192C55.5771 47.067 56.4809 46.8747 57.3713 46.6413C58.4235 46.3662 59.3886 45.8734 60.3173 45.3118C61.3994 44.6581 62.3856 43.8913 63.186 42.9035C63.8819 42.0419 64.2117 41.0459 64.0438 39.9585ZM62.196 40.4903C62.1603 40.9858 61.9334 41.4104 61.6041 41.7732C60.0504 43.4862 58.1013 44.5255 55.8717 45.0372C55.0247 45.2311 54.1506 45.3318 53.2836 45.412C52.5454 45.4802 51.7964 45.4916 51.0556 45.4645C50.5108 45.4439 49.9703 45.3194 49.4136 45.2392C49.3578 45.7483 49.3047 46.2785 49.2403 46.8076L48.9809 48.8357C48.9023 49.4786 48.8411 50.1236 48.7605 50.7659C48.6814 51.3892 48.5828 52.0104 48.5 52.6337C48.4225 53.2142 48.3657 53.7975 48.2795 54.377C48.1469 55.2651 48.0201 56.1555 47.8468 57.0366C47.6389 58.0899 47.3199 59.1102 46.7995 60.0601C46.1648 61.2196 45.2647 62.1029 44.1193 62.7571C42.9387 63.4319 41.6481 63.7828 40.3397 64.0763C39.4137 64.2843 38.4594 64.3184 37.5215 64.2339C35.8946 64.0866 34.506 63.3907 33.4565 62.1294C32.4546 60.9255 31.7766 59.5456 31.534 57.9838C31.4181 57.2413 31.3347 56.4923 31.2681 55.7439C31.1944 54.9115 31.144 54.0764 31.1061 53.2419C31.0579 52.182 31.0227 51.1222 30.9994 50.0624C30.9707 48.7594 30.9615 47.4564 30.9431 46.1534L30.9399 46.1036C30.277 46.5011 29.6255 46.9365 28.9345 47.295C28.1254 47.7152 27.2464 47.9589 26.3361 48.0277C25.6223 48.0819 24.8993 48.1312 24.1888 48.0743C23.0239 47.9806 21.8601 47.7981 20.817 47.2246C20.3941 46.9917 19.9527 46.7085 19.6613 46.3364C18.9627 45.445 19.2974 44.3186 20.3507 43.7765C21.0786 43.4012 21.8731 43.2447 22.6621 43.0622C23.3477 42.9035 24.0301 42.7231 24.6989 42.5049C25.3607 42.2883 25.7783 41.7516 26.1904 41.2252L26.8435 40.3852C26.5711 40.3565 26.3144 40.3273 26.0577 40.3034C25.2784 40.2298 24.5348 40.0153 23.8238 39.7001C23.2151 39.431 23.2059 39.4018 22.7596 39.8859C22.0144 40.695 21.2898 41.523 20.5598 42.3457C20.0226 42.9506 19.4886 43.5593 18.9541 44.1659C18.4244 44.7659 17.9283 45.4001 17.3581 45.9584C16.5111 46.7875 15.4902 47.2863 14.2723 47.23C13.4908 47.1943 12.7754 46.9202 12.132 46.4724C10.8041 45.5474 9.90947 44.2536 9.09496 42.8948C8.05138 41.1537 7.25041 39.2989 6.56479 37.3931C6.09039 36.076 5.61381 34.7579 5.19952 33.4218C4.74948 31.9699 4.35469 30.4996 3.96639 29.0298C3.67286 27.9207 3.41237 26.8024 3.16379 25.6819C2.88164 24.4076 2.61032 23.1311 2.37095 21.8482C2.20957 20.9822 2.11588 20.1038 1.98536 19.2319C1.80935 18.0567 1.77686 16.8707 1.84076 15.6906C1.89763 14.6275 2.05035 13.5672 2.20198 12.5111C2.41211 11.05 2.89356 9.67118 3.58621 8.36927C4.01025 7.57155 4.53665 6.8464 5.14536 6.1727C6.14454 5.06684 7.35385 4.26749 8.69908 3.66745C9.63923 3.24828 10.6325 2.99591 11.6446 2.79878C13.1469 2.50634 14.6627 2.51771 16.1791 2.54912C16.842 2.56266 17.5021 2.68343 18.1645 2.74896C19.5904 2.89085 20.9882 3.19087 22.3681 3.5613C23.3737 3.831 24.3588 4.1803 25.3564 4.48358C25.4566 4.5139 25.6033 4.5112 25.6851 4.45758C27.0368 3.57538 28.5142 2.9932 30.0853 2.66014C30.6816 2.53396 31.2968 2.47872 31.9066 2.43973C32.648 2.39261 33.3953 2.34929 34.1351 2.39207C35.0243 2.44298 35.9092 2.57404 36.7931 2.69535C37.222 2.75383 37.6406 2.90276 38.0706 2.94338C38.2764 2.96288 38.4946 2.81232 38.7123 2.76196C39.822 2.5058 40.9268 2.2204 42.0462 2.01785C42.8797 1.8673 43.731 1.79636 44.5785 1.74761C45.5235 1.69346 46.4756 1.65392 47.4201 1.69942C48.6142 1.75682 49.7997 1.92687 50.97 2.19928C52.4198 2.53667 53.8105 3.02678 55.1325 3.70698C56.1203 4.21496 57.0593 4.80418 57.9047 5.52879C58.4587 6.00428 59.0257 6.47381 59.5261 7.00346C60.1435 7.65658 60.7733 8.31024 61.1606 9.14695C61.4519 9.77787 61.6599 10.431 61.7173 11.122C61.7888 11.9809 61.8754 12.8431 61.8673 13.7031C61.8597 14.5257 61.7476 15.3478 61.668 16.1683C61.4871 18.0388 61.0804 19.8688 60.5865 21.6743C60.1782 23.1658 59.7011 24.641 59.1844 26.0989C58.7084 27.4425 58.1592 28.7617 57.6041 30.0755C57.1942 31.0471 56.7528 32.0084 56.273 32.9474C55.3648 34.727 54.4203 36.4882 53.328 38.1643C53.1395 38.454 52.9608 38.7508 52.7767 39.0465C53.2532 39.3682 53.7932 39.4814 54.3369 39.5399C54.8541 39.5962 55.3816 39.6297 55.8982 39.5913C56.7252 39.5301 57.5494 39.412 58.3715 39.2967C59.186 39.183 59.9843 38.9512 60.8205 39.0124C61.6555 39.073 62.2529 39.7077 62.196 40.4903ZM50.2747 38.6744C49.9199 38.2163 49.5582 37.7635 49.211 37.3C48.6662 36.5721 48.2747 35.7592 47.8815 34.9425C47.5089 34.1687 47.0518 33.4359 46.6592 32.6707C45.9741 31.3358 45.2766 30.0051 44.6457 28.6442C43.8523 26.9345 43.2268 25.1641 43.0297 23.2703C42.9463 22.4688 42.9251 21.6684 43.0871 20.8744C43.3465 19.6066 44.0088 18.615 45.1223 17.9348C46.155 17.3039 47.3058 17.1003 48.4848 17.0364C49.2164 16.9969 49.9513 17.0294 50.7106 17.0294L50.6852 16.901C50.2129 15.9137 49.7715 14.9097 49.2549 13.9457C48.526 12.5853 47.5934 11.3587 46.5547 10.2214C45.7851 9.37928 44.9517 8.59781 44.0386 7.90732C43.1407 7.22766 42.1946 6.62057 41.1851 6.12396C39.9812 5.53204 38.7275 5.07442 37.4121 4.78252C36.1481 4.50199 34.8759 4.33032 33.5794 4.31623C32.4736 4.30432 31.3747 4.35414 30.2976 4.6038C28.6718 4.98019 27.1847 5.64956 25.8909 6.73376C25.1685 7.33922 24.5381 8.01888 23.9862 8.77544C23.3385 9.66523 22.8159 10.626 22.3691 11.6333C21.7561 13.0153 21.3353 14.4537 21.0477 15.9322C20.9037 16.6692 20.791 17.4128 20.6762 18.1558C20.6362 18.4158 20.6329 18.6817 20.6096 18.9795C20.8095 18.8755 20.9535 18.7954 21.1008 18.7239L21.5801 18.5089C23.201 17.7675 24.8804 17.2904 26.6854 17.3451C27.4522 17.3684 28.186 17.52 28.8679 17.8558C30.1757 18.5008 30.941 19.5974 31.2735 20.9855C31.5031 21.9435 31.6601 22.9205 31.8129 23.8947C31.9326 24.6556 32.0549 25.4246 32.069 26.192C32.0891 27.3136 32.0322 28.4373 31.971 29.5584C31.919 30.5137 31.7197 31.4538 31.3861 32.3452C30.7796 33.9661 30.1037 35.5605 29.4722 37.1721C29.2637 37.7045 29.1034 38.2558 28.9063 38.8412C29.2107 38.8412 29.4576 38.8391 29.7046 38.8423C29.801 38.8439 29.8995 38.8467 29.9927 38.8689C30.7184 39.04 31.3477 39.3687 31.8638 39.9271C32.5521 40.6701 32.9133 41.5371 32.9317 42.5406C32.942 43.0968 32.8835 43.6546 32.8862 44.2108C32.8976 46.8027 32.9171 49.3946 32.9388 51.986C32.9426 52.4095 32.9637 52.8335 32.994 53.2565C33.0574 54.1419 33.1213 55.0279 33.2079 55.9112C33.2686 56.5378 33.3531 57.1633 33.4522 57.7856C33.5924 58.6672 33.9937 59.4519 34.4492 60.202C34.8413 60.847 35.3509 61.3951 36.0224 61.7731C37.1635 62.4154 38.3923 62.469 39.6308 62.2323C40.4675 62.0725 41.2891 61.8158 42.1014 61.551C42.9024 61.2905 43.6259 60.8638 44.2336 60.2762C44.8027 59.7243 45.2067 59.0517 45.4791 58.3092C46.0077 56.8692 46.1723 55.3529 46.3911 53.8484C46.4729 53.2852 46.5438 52.7203 46.6186 52.156C46.7036 51.5137 46.7897 50.872 46.872 50.2302C46.9327 49.752 46.9879 49.2728 47.0464 48.7946C47.1298 48.1079 47.2181 47.4217 47.2977 46.7345C47.3589 46.2032 47.4109 45.6698 47.465 45.1374C47.5349 44.4572 47.6102 43.777 47.6703 43.0957C47.7169 42.5785 47.6979 42.0521 47.7894 41.5447C47.9579 40.6143 48.3976 39.8225 49.2224 39.3108C49.5674 39.0969 49.9568 38.956 50.3396 38.7752L50.2747 38.6744ZM19.0824 34.8554C18.6703 33.8795 18.4228 32.8624 18.3491 31.8107C18.2798 30.8224 18.3973 29.8378 18.4986 28.8538C18.5972 27.9006 18.679 26.9432 18.7077 25.9857C18.7553 24.4119 18.6492 22.8403 18.5739 21.2676C18.5284 20.3313 18.6373 19.3835 18.7207 18.445C18.7959 17.5996 18.8896 16.7521 19.0494 15.9192C19.3175 14.5214 19.6733 13.1437 20.1791 11.8082C20.6594 10.542 21.2113 9.30888 21.9906 8.19868C22.5246 7.43725 23.1306 6.72564 23.7128 5.98153L23.54 5.92034C21.6456 5.31866 19.7204 4.84859 17.7404 4.64334C16.8041 4.5464 15.8645 4.48953 14.9254 4.43375C14.6373 4.41642 14.3448 4.45542 14.0557 4.48304C13.3397 4.55127 12.6151 4.57835 11.9105 4.71266C10.7115 4.94065 9.56124 5.32408 8.496 5.9485C7.5396 6.50901 6.73647 7.23362 6.06385 8.10282C5.32083 9.06247 4.82097 10.1478 4.46191 11.3051C4.03787 12.6703 3.83587 14.0751 3.78117 15.493C3.73352 16.7358 3.70969 17.9858 3.92415 19.2238C4.08391 20.1455 4.19059 21.077 4.3666 21.9949C4.60651 23.2465 4.86375 24.4953 5.16107 25.7339C5.58619 27.5069 6.01078 29.2827 6.51443 31.0341C6.99642 32.7124 7.54014 34.3755 8.12936 36.0186C8.61135 37.3595 9.16861 38.6755 9.75566 39.9742C10.138 40.8201 10.601 41.6341 11.0863 42.4264C11.6024 43.2674 12.1894 44.0657 12.9861 44.676C13.9912 45.4466 14.7694 45.5663 15.7908 44.721C16.2284 44.3587 16.5983 43.9113 16.979 43.4851C17.5839 42.8082 18.1677 42.1128 18.7699 41.4337C19.5368 40.5683 20.3134 39.7121 21.084 38.851C21.247 38.669 21.4035 38.4816 21.5622 38.2975L21.3001 38.0673C20.3421 37.1472 19.6001 36.0804 19.0824 34.8554ZM48.1577 9.09388C48.7837 9.82823 49.3897 10.5843 49.9497 11.3706C51.0328 12.8918 51.8983 14.5344 52.5357 16.2918C52.8178 17.0662 53.0431 17.8482 52.9424 18.6957C52.8725 19.2893 52.8785 19.8915 52.8259 20.4883C52.7821 20.9849 52.7036 21.4788 52.6391 21.9738C52.5427 22.7201 52.403 23.4642 52.3613 24.2137C52.3218 24.9269 52.3629 25.6477 52.4079 26.3626C52.4534 27.0888 52.5514 27.8118 52.618 28.537C52.6933 29.3591 52.7945 30.1811 52.8178 31.0049C52.8368 31.6813 52.7767 32.362 52.7176 33.0373C52.6472 33.8508 52.4409 34.6382 52.1333 35.3937C51.9172 35.9255 51.6589 36.441 51.4146 36.9734L51.5127 37.0774L51.6616 37.1927L51.8116 36.9241C53.0783 34.9268 54.2053 32.8527 55.1812 30.7C55.8089 29.3136 56.397 27.9077 56.9613 26.4942C57.8408 24.2933 58.5367 22.0307 59.075 19.7231C59.3165 18.6871 59.5012 17.6354 59.6653 16.5837C59.7931 15.7616 59.8998 14.9297 59.9236 14.1001C59.9491 13.22 59.9003 12.3329 59.8191 11.4551C59.7585 10.7922 59.5949 10.125 59.1795 9.58616C58.5118 8.71858 57.791 7.88891 56.9044 7.23254C56.1582 6.6796 55.4146 6.11259 54.6136 5.64739C53.3437 4.91087 51.9692 4.42021 50.533 4.08607C49.1314 3.75951 47.7114 3.61871 46.2823 3.58892C45.4396 3.57105 44.5931 3.66149 43.7521 3.74056C42.9901 3.81204 42.233 3.93389 41.4656 4.03462C42.2888 4.49766 43.1006 4.90924 43.8664 5.39448C45.4764 6.41424 46.9192 7.64141 48.1577 9.09388ZM27.2399 37.646C27.7604 35.9818 28.4693 34.3929 29.156 32.7942C29.7127 31.4977 30.0171 30.1319 30.1183 28.7292C30.1687 28.0377 30.1546 27.3374 30.1205 26.6437C30.082 25.873 30.0203 25.1002 29.9082 24.3372C29.7641 23.3618 29.6001 22.3859 29.3693 21.4285C29.1191 20.3924 28.4882 19.6711 27.4073 19.4052C26.7487 19.2433 26.0945 19.2498 25.429 19.3548C23.8032 19.611 22.315 20.2099 20.9286 21.0873C20.6497 21.2638 20.4964 21.4062 20.5446 21.8065C20.6464 22.654 20.6686 23.5151 20.6649 24.3707C20.6594 25.5817 20.608 26.7926 20.562 28.003C20.5468 28.3972 20.4899 28.7893 20.4477 29.182C20.3827 29.7831 20.2576 30.3837 20.2614 30.9837C20.2652 31.6022 20.3285 32.2353 20.4786 32.8343C20.9551 34.7335 21.9646 36.2878 23.6191 37.3844C24.6367 38.0587 25.7626 38.3988 26.9984 38.4632C27.0823 38.1795 27.1571 37.9114 27.2399 37.646ZM25.2979 21.3521C25.0802 20.895 25.2048 20.5165 25.7095 20.341C25.8324 20.2977 25.9591 20.2516 26.087 20.2392C26.2624 20.2219 26.4411 20.2349 26.6188 20.2349C27.2589 20.2381 27.8746 20.3275 28.4032 20.7347C28.7422 20.9957 28.8332 21.3423 28.6139 21.6982C28.3025 22.2029 27.8275 22.4563 27.2443 22.5051C26.3252 22.5814 25.6802 22.1531 25.2979 21.3521ZM50.7729 21.1853C50.8465 20.5766 50.9056 19.9662 50.9809 19.3575C51.0112 19.1127 50.8823 19.0467 50.677 19.0407C50.0315 19.0228 49.386 19.0001 48.7404 18.9882C48.0126 18.9752 47.3042 19.0922 46.6305 19.3689C45.8831 19.6765 45.314 20.1693 45.0816 20.9827C44.9083 21.5893 44.8618 22.1953 44.923 22.8295C45.0161 23.7962 45.2306 24.7341 45.569 25.6326C46.0207 26.8354 46.4935 28.0377 47.0583 29.1901C47.8236 30.7503 48.6895 32.2607 49.5024 33.7971C49.7196 34.2071 49.9021 34.6349 50.1284 35.1137C50.6023 34.1102 50.8335 33.1056 50.8601 32.069C50.8823 31.1971 50.8124 30.3214 50.7615 29.449C50.7296 28.915 50.6543 28.3843 50.6023 27.8514C50.5297 27.1089 50.4198 26.3669 50.403 25.6228C50.3862 24.8663 50.4398 24.1054 50.5048 23.3499C50.566 22.6253 50.6857 21.9067 50.7729 21.1853ZM49.3166 20.5993C49.0767 21.2617 48.5639 21.6353 47.8988 21.7453C47.2787 21.8471 46.7356 21.618 46.3316 21.1236C46.044 20.7715 46.1539 20.3545 46.585 20.1168C47.08 19.8428 47.6243 19.7734 48.266 19.7317C48.4404 19.7637 48.703 19.7902 48.9527 19.8617C49.315 19.9641 49.4488 20.2365 49.3166 20.5993ZM30.1335 40.9945C29.7788 40.7047 29.3098 40.688 28.9724 41.0059C28.5538 41.4012 28.1855 41.8534 27.8172 42.2991C27.3921 42.8141 26.9935 43.3497 26.4449 43.7489C25.6467 44.3289 24.7163 44.5693 23.781 44.7968C23.0374 44.9777 22.2906 45.1455 21.5449 45.3194L21.5357 45.4158C21.7572 45.5181 21.9716 45.6459 22.2023 45.7191C23.3396 46.0792 24.4964 46.2584 25.6981 46.1566C26.5657 46.083 27.3921 45.894 28.1752 45.5225C29.2529 45.0118 30.082 44.2027 30.7872 43.2615C30.9052 43.1044 30.9588 42.8721 30.9729 42.6695C31.0211 41.9541 30.6577 41.4223 30.1335 40.9945ZM58.1598 41.2793C57.2445 41.3774 56.3282 41.4813 55.4103 41.5339C54.9673 41.5593 54.5178 41.4748 54.0705 41.4386C53.3204 41.3779 52.5882 41.2111 51.954 40.8104C51.5869 40.5791 51.282 40.5531 50.892 40.6842C50.3353 40.8715 49.8809 41.1564 49.7466 41.7597C49.6551 42.1675 49.6221 42.5899 49.5852 43.0075C49.5782 43.0811 49.6703 43.2165 49.7407 43.2349C50.1701 43.3481 50.6018 43.4819 51.041 43.5214C51.5804 43.5701 52.1295 43.5544 52.6727 43.5274C53.2592 43.4981 53.8495 43.4602 54.4273 43.3627C55.7894 43.1342 57.107 42.7616 58.2773 41.9893C58.6992 41.7104 59.1172 41.4256 59.5364 41.1434L59.5018 41.0838C59.0544 41.1504 58.6093 41.2317 58.1598 41.2793Z" fill="#40A2E3" fill-opacity="0.9"/>
</svg>
