<svg width="53" height="70" viewBox="0 0 53 70" fill="none" xmlns="http://www.w3.org/2000/svg">
<mask id="mask0_85_48" style="mask-type:luminance" maskUnits="userSpaceOnUse" x="0" y="0" width="53" height="70">
<path d="M49.5797 0C51.1923 0 52.5 1.30746 52.5 2.92031V67.0797C52.5 68.6923 51.1923 70 49.5797 70H2.91668C1.30585 70 0 68.6941 0 67.0832V37.9167C0 36.3058 1.30585 35 2.91668 35H14.2188V20.4167C14.2188 18.8058 15.5246 17.5 17.1354 17.5H28.4375V2.92031C28.4375 1.30747 29.745 0 31.3578 0L49.5797 0Z" fill="white"/>
</mask>
<g mask="url(#mask0_85_48)">
<path d="M43.75 2.92031V67.0797C43.75 68.6923 42.4423 70 40.8297 70H22.6078C20.995 70 19.6875 68.6923 19.6875 67.0797V2.92031C19.6875 1.30747 20.995 0 22.6078 0H40.8297C42.4427 0 43.75 1.30746 43.75 2.92031Z" fill="#183D3D"/>
<path d="M29.5312 20.4167V70H5.46875V20.4167C5.46875 18.8058 6.7746 17.5 8.38543 17.5H26.6144C28.2253 17.5 29.5312 18.8058 29.5312 20.4167Z" fill="#5C8374"/>
<path d="M-8.75 37.9167V67.0832C-8.75 68.6941 -7.44415 70 -5.83332 70H15.3125V37.9167C15.3125 36.3058 14.0066 35 12.3958 35H-5.83332C-7.44415 35 -8.75 36.3058 -8.75 37.9167Z" fill="#93B1A6"/>
</g>
</svg>
