<svg width="63" height="63" viewBox="0 0 63 63" fill="none" xmlns="http://www.w3.org/2000/svg">
<path fill-rule="evenodd" clip-rule="evenodd" d="M31.0907 46.5904C31.0907 47.2417 31.0907 47.8325 31.0907 48.4873C36.0682 48.4873 41.019 48.4873 45.9661 48.4873C45.9661 50.7995 45.9661 53.048 45.9655 55.2963C45.9655 55.3164 45.9554 55.3364 45.9519 55.3568C45.6233 57.2632 44.5622 58.6865 43.0209 59.7869C41.1145 61.1477 38.9258 61.8056 36.6813 62.3259C31.4417 63.5411 26.3257 63.1178 21.3874 61.0192C20.2136 60.5204 19.1172 59.7398 18.1357 58.9106C16.7301 57.7227 16.0519 56.1073 16.05 54.2451C16.0455 49.4434 16.0005 44.6412 16.0639 39.8404C16.1208 35.522 19.4716 32.285 23.787 32.2724C28.5843 32.2585 33.3826 32.2056 38.1784 32.2866C43.027 32.3687 47.1465 28.6699 47.8153 24.0644C47.8923 23.5346 47.9 22.9919 47.903 22.4548C47.913 20.5715 47.9069 18.6881 47.9069 16.8047C47.9069 16.5829 47.9069 16.3609 47.9069 16.0764C48.677 16.0764 49.3745 16.0764 50.0721 16.0764C51.1886 16.0765 52.3054 16.0851 53.4219 16.075C56.0788 16.0507 58.0596 17.2098 59.4157 19.4779C60.406 21.1339 60.8998 22.9651 61.3193 24.8255C61.964 27.6836 62.3547 30.566 62.1418 33.503C61.8916 36.9576 60.8931 40.1997 59.2424 43.2308C57.9774 45.5534 55.966 46.607 53.3258 46.5982C46.192 46.5748 39.0581 46.5903 31.9243 46.5904C31.6589 46.5904 31.3935 46.5904 31.0907 46.5904ZM39.5264 52.3202C37.9431 52.3047 36.6957 53.5358 36.6827 55.1263C36.6695 56.7132 37.9016 58.011 39.4458 58.0368C40.9856 58.0625 42.2765 56.78 42.2931 55.2076C42.3099 53.608 41.0907 52.3354 39.5264 52.3202Z" fill="#FFDC69" fill-opacity="0.9"/>
<path fill-rule="evenodd" clip-rule="evenodd" d="M31.0153 16.0764C31.0153 15.4274 31.0153 14.8408 31.0153 14.1807C26.0284 14.1807 21.0771 14.1807 16.113 14.1807C16.0839 13.9916 16.0492 13.8723 16.0497 13.7533C16.0583 11.6423 16.0169 9.52928 16.0957 7.42081C16.2214 4.06021 17.568 2.23912 20.806 1.33571C22.7641 0.7895 24.7984 0.432971 26.8223 0.224406C30.8074 -0.186263 34.796 -0.0328848 38.7457 0.68128C41.0372 1.09558 42.9891 2.1584 44.4642 3.99955C45.4931 5.28373 46.0342 6.7531 46.034 8.41097C46.033 13.1922 46.057 17.9736 46.0269 22.7547C45.9993 27.1363 42.7178 30.3646 38.3327 30.3721C33.4938 30.3805 28.6548 30.3699 23.8158 30.3757C19.0918 30.3811 15.2052 33.5834 14.3167 38.2194C14.2008 38.8242 14.1798 39.4535 14.1743 40.0719C14.1568 41.9967 14.1678 43.9217 14.1678 45.8466C14.1678 46.0691 14.1678 46.2914 14.1678 46.5904C13.708 46.5904 13.3207 46.5936 12.9335 46.5899C11.4038 46.576 9.8711 46.6161 8.34532 46.5318C5.94424 46.3989 4.14302 45.1897 2.81202 43.2247C1.6993 41.5818 1.21296 39.7077 0.759656 37.8103C-0.412797 32.9041 -0.192236 28.0457 1.17408 23.2159C2.44565 18.7208 5.90173 16.087 10.5833 16.0793C17.1386 16.0684 23.6938 16.0764 30.249 16.0764C30.4923 16.0764 30.7356 16.0764 31.0153 16.0764ZM22.5753 4.63909C21.0182 4.64991 19.794 5.92265 19.8033 7.52134C19.8124 9.10139 21.0786 10.3693 22.6324 10.3541C24.1795 10.339 25.4267 9.04312 25.4134 7.4648C25.3999 5.88648 24.1363 4.62838 22.5753 4.63909Z" fill="#3773A3" fill-opacity="0.9"/>
</svg>
