<svg width="265" height="220" viewBox="0 0 265 220" fill="none" xmlns="http://www.w3.org/2000/svg">
<path d="M100.061 60.8729L113.983 72.011L88.9227 111.392L85.3425 105.823H58.6906L32.4365 150.376L11.7514 178.619L10.558 183.79L3 205.271L68.6354 206.464L82.1602 215.215L91.3094 216.409L108.812 218L169.674 215.215L166.89 193.735L164.901 173.448L163.309 161.514L185.586 133.271L181.608 130.088L177.63 119.746L169.674 108.21L159.729 99.0608L141.033 86.7293L151.773 69.6243L185.586 68.4309L192.746 72.011L207.862 82.7514L228.945 80.7624L234.912 85.5359L242.47 75.9889L226.558 64.8508L259.972 59.2818L232.923 39.3923L198.315 43.768L187.177 35.0166L217.011 31.4365V28.2541L205.873 19.9006V15.1271L203.884 13.1381L200.304 2H188.37L182.403 5.18232L148.193 9.16022L143.42 13.1381V16.7182L191.155 50.1326L188.37 55.7017H175.641L134.669 28.2541H122.337L93.2983 9.16022L95.6851 18.3094L78.5801 41.779L85.3425 50.1326L93.2983 57.6906L100.061 60.8729Z" fill="#263335" stroke="#AECEC4" stroke-width="4"/>
</svg>
