<svg width="129" height="129" viewBox="0 0 129 129" fill="none" xmlns="http://www.w3.org/2000/svg">
<path d="M95.827 60.7498C102.284 63.559 108.734 66.3369 115.404 68.6077C115.633 68.6858 115.862 68.7639 116.098 68.8444C118.908 69.8084 118.908 69.8084 121.795 70.485C121.214 80.1252 117.419 90.07 111.67 97.8225C111.332 98.3004 110.995 98.7785 110.657 99.2569C110.435 99.5632 110.212 99.8694 109.982 100.185C109.871 99.7395 109.76 99.294 109.645 98.835C106.526 98.835 103.408 98.835 100.195 98.835C100.195 98.0554 100.195 97.2758 100.195 96.4725C97.0764 96.4725 93.9579 96.4725 90.7449 96.4725C90.7449 95.4701 90.7449 94.4678 90.7449 93.435C87.6264 93.435 84.5079 93.435 81.2949 93.435C81.2949 92.2099 81.2949 90.9848 81.2949 89.7225C78.1764 89.7225 75.0579 89.7225 71.8449 89.7225C71.8449 88.386 71.8449 87.0495 71.8449 85.6725C68.7264 85.6725 65.6079 85.6725 62.3949 85.6725C62.3949 84.4474 62.3949 83.2223 62.3949 81.96C59.2764 81.96 56.1579 81.96 52.9449 81.96C52.9449 81.069 52.9449 80.178 52.9449 79.26C49.8264 79.26 46.7079 79.26 43.4949 79.26C43.4949 78.9259 43.4949 78.5918 43.4949 78.2475C40.1537 78.2475 36.8124 78.2475 33.3699 78.2475C33.3699 78.5816 33.3699 78.9158 33.3699 79.26C30.2514 79.26 27.1329 79.26 23.9199 79.26C23.9199 80.151 23.9199 81.042 23.9199 81.96C20.8014 81.96 17.6829 81.96 14.4699 81.96C14.4699 83.1851 14.4699 84.4103 14.4699 85.6725C13.2448 85.6725 12.0197 85.6725 10.7574 85.6725C8.7584 80.8891 7.04492 75.729 7.04492 70.485C7.31515 70.403 7.58537 70.3209 7.86379 70.2364C15.6712 67.8523 23.1793 64.9301 30.6699 61.71C39.0272 58.122 47.0559 54.8732 55.9824 52.935C56.4001 52.8436 56.8177 52.7523 57.248 52.6582C70.5308 50.2022 83.9 55.5526 95.827 60.7498Z" fill="#6478A6"/>
<path d="M88.3825 26.2725C88.7815 26.2786 89.1804 26.2847 89.5914 26.2909C95.7097 26.5377 101.69 28.6437 107.405 30.689C108.179 30.9571 108.952 31.1942 109.739 31.4193C112.544 32.3453 113.824 33.7126 115.195 36.2315C120.384 46.5391 122.331 56.3507 122.133 67.785C113.323 65.7072 105.101 62.0251 96.8337 58.4287C82.451 52.1807 68.1128 46.9325 52.27 50.91C51.9737 50.9843 51.6774 51.0585 51.372 51.1351C43.7021 53.1338 36.4121 56.4643 29.1713 59.6399C28.9628 59.7314 28.7543 59.8228 28.5395 59.917C28.3315 60.0083 28.1235 60.0995 27.9091 60.1936C10.5642 67.785 10.5642 67.785 6.70751 67.785C6.59165 61.1201 6.92763 54.9785 8.73251 48.5475C10.1379 48.1266 11.4983 47.7771 12.9513 47.5772C13.7951 47.451 14.6388 47.3246 15.4825 47.1975C15.8901 47.1364 15.8901 47.1364 16.3058 47.074C29.018 45.1286 40.8274 40.444 52.5822 35.3942C69.5834 28.0956 69.5834 28.0956 76.9075 26.9475C77.2969 26.8796 77.6863 26.8117 78.0874 26.7418C81.5289 26.2028 84.9082 26.1812 88.3825 26.2725Z" fill="#85AAC6"/>
<path d="M95.827 60.7498C102.284 63.559 108.734 66.3369 115.404 68.6077C115.633 68.6858 115.862 68.7639 116.098 68.8444C118.908 69.8084 118.908 69.8084 121.795 70.485C121.214 80.1252 117.419 90.07 111.67 97.8225C111.332 98.3004 110.995 98.7785 110.657 99.2569C110.435 99.5632 110.212 99.8694 109.982 100.185C109.871 99.7395 109.76 99.294 109.645 98.835C106.526 98.835 103.408 98.835 100.195 98.835C100.195 98.0554 100.195 97.2758 100.195 96.4725C97.0764 96.4725 93.9579 96.4725 90.7449 96.4725C90.7449 95.4701 90.7449 94.4678 90.7449 93.435C87.6264 93.435 84.5079 93.435 81.2949 93.435C81.2949 92.2099 81.2949 90.9848 81.2949 89.7225C78.1764 89.7225 75.0579 89.7225 71.8449 89.7225C71.8449 88.386 71.8449 87.0495 71.8449 85.6725C68.7264 85.6725 65.6079 85.6725 62.3949 85.6725C62.3949 84.4474 62.3949 83.2223 62.3949 81.96C59.2764 81.96 56.1579 81.96 52.9449 81.96C52.9449 81.069 52.9449 80.178 52.9449 79.26C49.8264 79.26 46.7079 79.26 43.4949 79.26C43.4949 78.9259 43.4949 78.5918 43.4949 78.2475C40.1537 78.2475 36.8124 78.2475 33.3699 78.2475C33.3699 78.5816 33.3699 78.9158 33.3699 79.26C30.2514 79.26 27.1329 79.26 23.9199 79.26C23.9199 80.151 23.9199 81.042 23.9199 81.96C20.8014 81.96 17.6829 81.96 14.4699 81.96C14.4699 83.1851 14.4699 84.4103 14.4699 85.6725C13.2448 85.6725 12.0197 85.6725 10.7574 85.6725C8.7584 80.8891 7.04492 75.729 7.04492 70.485C7.31515 70.403 7.58537 70.3209 7.86379 70.2364C15.6712 67.8523 23.1793 64.9301 30.6699 61.71C39.0272 58.122 47.0559 54.8732 55.9824 52.935C56.4001 52.8436 56.8177 52.7523 57.248 52.6582C70.5308 50.2022 83.9 55.5526 95.827 60.7498Z" fill="#6478A6"/>
<path d="M88.3825 26.2725C88.7815 26.2786 89.1804 26.2847 89.5914 26.2909C95.7097 26.5377 101.69 28.6437 107.405 30.689C108.179 30.9571 108.952 31.1942 109.739 31.4193C112.544 32.3453 113.824 33.7126 115.195 36.2315C120.384 46.5391 122.331 56.3507 122.133 67.785C113.323 65.7072 105.101 62.0251 96.8337 58.4287C82.451 52.1807 68.1128 46.9325 52.27 50.91C51.9737 50.9843 51.6774 51.0585 51.372 51.1351C43.7021 53.1338 36.4121 56.4643 29.1713 59.6399C28.9628 59.7314 28.7543 59.8228 28.5395 59.917C28.3315 60.0083 28.1235 60.0995 27.9091 60.1936C10.5642 67.785 10.5642 67.785 6.70751 67.785C6.59165 61.1201 6.92763 54.9785 8.73251 48.5475C10.1379 48.1266 11.4983 47.7771 12.9513 47.5772C13.7951 47.451 14.6388 47.3246 15.4825 47.1975C15.8901 47.1364 15.8901 47.1364 16.3058 47.074C29.018 45.1286 40.8274 40.444 52.5822 35.3942C69.5834 28.0956 69.5834 28.0956 76.9075 26.9475C77.2969 26.8796 77.6863 26.8117 78.0874 26.7418C81.5289 26.2028 84.9082 26.1812 88.3825 26.2725Z" fill="#85AAC6"/>
<path d="M101.545 15.81C101.845 16.0353 102.145 16.2607 102.453 16.4929C114.411 25.7954 121.854 39.2446 124.833 53.9475C124.916 54.349 125 54.7506 125.086 55.1643C126.245 62.0304 125.829 69.4145 124.495 76.2225C124.45 76.4667 124.405 76.7109 124.358 76.9625C122.686 85.8091 118.569 94.474 113.02 101.535C112.795 101.835 112.569 102.134 112.337 102.443C102.592 114.97 87.8389 123.023 72.2036 125.265C66.346 125.926 59.7332 126.057 53.9575 124.822C53.6666 124.761 53.3757 124.699 53.076 124.635C48.2192 123.578 43.638 122.142 39.1075 120.097C38.8658 119.989 38.6241 119.88 38.375 119.768C34.9072 118.18 31.7378 116.249 28.645 114.022C28.453 113.886 28.261 113.749 28.0631 113.608C14.8531 104.084 6.5727 89.3835 3.75175 73.4987C1.47169 57.6025 5.52724 41.2892 14.9562 28.3029C24.642 15.4192 38.2247 7.16627 53.9575 3.99745C54.3708 3.91392 54.7841 3.83039 55.21 3.74433C71.2868 1.09551 88.7912 5.78792 101.545 15.81ZM50.1606 8.25839C49.8308 8.34595 49.5009 8.4335 49.161 8.52371C45.8978 9.42562 42.8345 10.6404 39.7825 12.0975C39.5146 12.2245 39.2466 12.3515 38.9706 12.4824C33.582 15.0767 28.9083 18.4165 24.595 22.56C24.3468 22.7924 24.3468 22.7924 24.0935 23.0296C18.612 28.1758 14.8265 34.1013 11.6013 40.8482C11.487 41.0868 11.3726 41.3254 11.2549 41.5713C10.6965 42.7714 10.3137 43.8732 10.0825 45.1725C12.756 44.9967 15.347 44.6755 17.9716 44.1389C18.3304 44.0656 18.6891 43.9924 19.0588 43.917C31.6278 41.2748 43.3449 36.7451 55.061 31.6118C72.9805 23.7822 88.7008 20.9369 107.475 28.0071C108.195 28.2621 108.901 28.4656 109.645 28.635C104.878 21.9151 98.3585 16.8473 91.0825 13.11C90.8596 12.9935 90.6367 12.877 90.407 12.757C82.1421 8.481 73.3152 6.58314 64.0403 6.57089C63.6166 6.57026 63.1929 6.56964 62.7563 6.569C58.4732 6.62067 54.3006 7.15687 50.1606 8.25839ZM53.6045 34.9546C42.176 39.9306 30.6924 44.5476 18.3639 46.7019C17.5483 46.8524 16.7437 47.0284 15.936 47.2159C14.4922 47.545 13.0504 47.7465 11.5802 47.9146C11.2144 47.9584 11.2144 47.9584 10.8412 48.003C10.251 48.0733 9.66052 48.1418 9.07001 48.21C6.56419 54.4745 6.59184 61.1311 6.70751 67.785C16.6715 65.1917 26.067 61.0329 35.4794 56.9322C39.1549 55.3389 42.8384 53.8718 46.638 52.5975C47.0022 52.4752 47.3664 52.353 47.7417 52.2271C66.7055 46.0515 83.2529 52.4841 100.598 60.0712C111.049 65.2347 111.049 65.2347 122.133 67.785C122.313 57.4297 120.851 48.4641 116.463 38.9798C116.102 38.1837 115.779 37.3826 115.462 36.5688C114.132 33.506 112.18 32.3769 109.118 31.1662C107.618 30.6179 106.106 30.1235 104.583 29.6475C104.211 29.5291 103.839 29.4108 103.456 29.2889C98.4461 27.713 93.6458 26.4974 88.3825 26.2725C88.1507 26.261 87.919 26.2495 87.6802 26.2377C75.5925 25.6997 64.4768 30.2118 53.6045 34.9546ZM52.945 53.61C52.6782 53.6678 52.4114 53.7256 52.1365 53.7851C44.3205 55.5126 37.0077 58.9738 29.6928 62.1351C25.002 64.1612 20.3018 66.0815 15.4825 67.785C14.8404 68.0156 14.1984 68.2463 13.5564 68.4771C12.94 68.6968 12.3235 68.9162 11.7067 69.135C11.4297 69.2334 11.1526 69.3318 10.8671 69.4331C9.60029 69.875 8.37475 70.2718 7.04501 70.485C7.57278 78.6489 7.57278 78.6489 10.7575 85.6725C11.9959 85.7208 13.2304 85.6867 14.47 85.6725C14.47 84.4473 14.47 83.2222 14.47 81.96C17.5885 81.96 20.707 81.96 23.92 81.96C23.92 81.069 23.92 80.178 23.92 79.26C27.0385 79.26 30.157 79.26 33.37 79.26C33.37 78.9258 33.37 78.5917 33.37 78.2475C36.7113 78.2475 40.0525 78.2475 43.495 78.2475C43.495 78.5816 43.495 78.9157 43.495 79.26C46.6135 79.26 49.732 79.26 52.945 79.26C52.945 80.151 52.945 81.042 52.945 81.96C56.0635 81.96 59.182 81.96 62.395 81.96C62.395 83.1851 62.395 84.4102 62.395 85.6725C65.5135 85.6725 68.632 85.6725 71.845 85.6725C71.845 87.009 71.845 88.3455 71.845 89.7225C74.9635 89.7225 78.082 89.7225 81.295 89.7225C81.295 90.9476 81.295 92.1727 81.295 93.435C84.4135 93.435 87.532 93.435 90.745 93.435C90.745 94.4373 90.745 95.4397 90.745 96.4725C93.8635 96.4725 96.982 96.4725 100.195 96.4725C100.195 97.2521 100.195 98.0317 100.195 98.835C103.314 98.835 106.432 98.835 109.645 98.835C109.756 99.2805 109.868 99.726 109.983 100.185C115.986 91.9754 121.978 80.9905 121.795 70.485C121.479 70.3984 121.162 70.3118 120.837 70.2226C112.947 68.0121 105.467 64.881 97.9648 61.6288C83.2602 55.2619 69.0602 49.9902 52.945 53.61ZM34.045 78.9225C34.045 90.3941 34.045 101.866 34.045 113.685C39.0143 116.636 39.0143 116.636 42.82 118.072C42.82 105.153 42.82 92.2335 42.82 78.9225C39.9243 78.9225 37.0285 78.9225 34.045 78.9225ZM24.595 79.935C24.5109 83.3588 24.4429 86.782 24.4027 90.2066C24.3833 91.7971 24.3571 93.3868 24.3149 94.9769C24.2744 96.5131 24.2524 98.0487 24.2428 99.5855C24.2359 100.17 24.2226 100.754 24.2025 101.339C24.0277 104.681 24.0277 104.681 25.4006 107.616C26.3352 108.387 27.267 109.017 28.3075 109.635C28.7461 109.973 29.1806 110.316 29.6061 110.67C29.9673 110.951 30.329 111.232 30.6911 111.512C30.878 111.66 31.0648 111.807 31.2573 111.959C32.2032 112.763 32.2032 112.763 33.37 113.01C33.37 102.095 33.37 91.1805 33.37 79.935C30.4743 79.935 27.5785 79.935 24.595 79.935ZM43.495 79.935C43.495 92.6317 43.495 105.328 43.495 118.41C48.9412 120.446 48.9412 120.446 52.27 120.772C52.27 107.296 52.27 93.8197 52.27 79.935C49.3743 79.935 46.4785 79.935 43.495 79.935ZM15.145 82.635C15.0825 84.2925 15.0289 85.9458 14.9967 87.6035C14.9832 88.1653 14.9649 88.727 14.9413 89.2884C14.7758 93.3337 15.1188 95.6759 17.845 98.835C18.1238 99.2011 18.4018 99.5679 18.6782 99.9358C19.0176 100.341 19.0176 100.341 19.3638 100.754C19.6144 101.054 19.8649 101.353 20.1231 101.662C21.8137 103.658 21.8137 103.658 23.5825 105.585C23.6939 105.585 23.8053 105.585 23.92 105.585C23.92 98.0115 23.92 90.438 23.92 82.635C21.0243 82.635 18.1285 82.635 15.145 82.635ZM52.945 82.635C52.945 95.3317 52.945 108.028 52.945 121.11C56.3999 121.962 56.3999 121.962 61.72 122.122C61.72 109.092 61.72 96.0607 61.72 82.635C58.8243 82.635 55.9285 82.635 52.945 82.635ZM11.095 86.3475C11.8165 88.7924 12.8591 90.8926 14.1325 93.0975C14.2439 93.0975 14.3553 93.0975 14.47 93.0975C14.47 90.87 14.47 88.6425 14.47 86.3475C13.3563 86.3475 12.2425 86.3475 11.095 86.3475ZM62.395 86.3475C62.395 98.1532 62.395 109.959 62.395 122.122C66.8109 122.241 66.8109 122.241 71.17 121.785C71.17 110.091 71.17 98.3962 71.17 86.3475C68.2743 86.3475 65.3785 86.3475 62.395 86.3475ZM71.845 90.3975C71.845 100.755 71.845 111.113 71.845 121.785C76.487 121.204 76.487 121.204 80.62 120.097C80.62 110.296 80.62 100.495 80.62 90.3975C77.7243 90.3975 74.8285 90.3975 71.845 90.3975ZM81.295 94.11C81.295 102.574 81.295 111.039 81.295 119.76C84.2502 118.717 87.2062 117.658 90.07 116.385C90.07 109.034 90.07 101.683 90.07 94.11C87.1743 94.11 84.2785 94.11 81.295 94.11ZM90.745 97.1475C90.745 103.273 90.745 109.399 90.745 115.71C92.0521 115.187 93.1644 114.658 94.3731 113.959C94.6986 113.773 95.024 113.588 95.3593 113.396C95.7299 113.157 96.1006 112.919 96.4825 112.672C96.7472 112.55 97.0119 112.428 97.2846 112.302C98.308 111.726 98.854 111.287 99.52 110.31C100.035 108.126 99.804 105.803 99.7098 103.581C99.6946 102.958 99.6807 102.334 99.6683 101.711C99.6375 100.188 99.5782 98.6704 99.52 97.1475C96.6243 97.1475 93.7285 97.1475 90.745 97.1475ZM100.195 99.51C100.195 102.851 100.195 106.192 100.195 109.635C101.666 108.654 102.944 107.703 104.224 106.513C104.399 106.352 104.574 106.19 104.755 106.023C106.149 104.722 107.418 103.343 108.633 101.872C108.744 101.761 108.855 101.65 108.97 101.535C108.97 100.867 108.97 100.198 108.97 99.51C106.074 99.51 103.179 99.51 100.195 99.51Z" fill="#FAFAFB"/>
<path d="M97.8325 17.16C98.188 17.4167 98.5434 17.6733 98.9096 17.9378C101.402 19.7811 103.63 21.8511 105.827 24.0365C106.09 24.2975 106.353 24.5585 106.624 24.8274C107.82 26.0391 108.805 27.1432 109.645 28.635C106.843 27.7029 106.843 27.7029 105.685 27.3076C95.7449 23.9177 85.6287 22.0147 75.22 24.585C74.8626 24.6665 74.8626 24.6665 74.4979 24.7496C66.6745 26.5348 59.3776 29.7037 52.0516 32.9008C39.4695 38.3882 25.7309 44.0679 11.8755 45.0459C11.3619 45.0838 11.3619 45.0838 10.8379 45.1224C10.5887 45.1389 10.3394 45.1554 10.0825 45.1725C10.7165 42.7986 11.5593 40.6506 12.6771 38.4647C12.9016 38.0225 12.9016 38.0225 13.1306 37.5713C14.3262 35.2541 15.6181 33.0976 17.17 30.9975C17.4271 30.6407 17.6843 30.284 17.9492 29.9164C23.2146 22.8013 29.8963 17.13 37.7575 13.11C37.9876 12.9917 38.2177 12.8734 38.4548 12.7515C56.9841 3.34595 80.9805 4.4424 97.8325 17.16Z" fill="#B2D6DE"/>
<path d="M106.903 15.8733C107.483 16.4105 108.059 16.9524 108.632 17.4975C108.916 17.7643 108.916 17.7643 109.205 18.0364C119.984 28.248 127.094 42.4927 128.545 57.3225C128.582 57.6753 128.619 58.0282 128.657 58.3917C130.189 75.166 125.143 92.2627 114.37 105.248C113.393 106.409 112.379 107.523 111.332 108.623C111.155 108.811 110.977 109 110.794 109.195C100.582 119.974 86.3373 127.084 71.5075 128.535C71.1546 128.572 70.8018 128.609 70.4383 128.647C53.664 130.179 36.5672 125.133 23.5825 114.36C22.4212 113.383 21.3073 112.369 20.2075 111.323C19.9242 111.056 19.9242 111.056 19.6353 110.784C14.9453 106.341 11.1699 101.458 8.05746 95.7975C7.94277 95.589 7.82807 95.3805 7.70991 95.1657C-0.619736 79.7811 -2.09377 61.981 2.77348 45.2569C5.68751 35.7984 10.6973 27.3575 17.5075 20.1975C17.6853 20.0087 17.8631 19.8199 18.0463 19.6253C22.4893 14.9354 27.3721 11.16 33.0325 8.04751C33.241 7.93281 33.4495 7.81812 33.6643 7.69995C57.1799 -5.03207 86.8109 -1.74826 106.903 15.8733ZM18.4995 23.8591C10.9086 32.2775 6.23876 42.9316 4.00746 53.9475C3.92393 54.3491 3.8404 54.7506 3.75433 55.1643C2.59524 62.0304 3.01123 69.4145 4.34496 76.2225C4.39015 76.4667 4.43534 76.711 4.4819 76.9626C6.15394 85.8092 10.2714 94.474 15.82 101.535C16.0453 101.835 16.2707 102.135 16.5029 102.443C25.8054 114.401 39.2546 121.844 53.9575 124.823C54.359 124.906 54.7606 124.99 55.1743 125.076C62.0404 126.235 69.4245 125.819 76.2325 124.485C76.4767 124.44 76.7209 124.395 76.9726 124.348C85.8191 122.676 94.484 118.559 101.545 113.01C101.845 112.785 102.144 112.559 102.453 112.327C114.98 102.582 123.033 87.8289 125.275 72.1936C126.005 65.6285 125.925 58.7205 124.495 52.26C124.4 51.8277 124.4 51.8277 124.303 51.3866C121.769 40.3345 116.486 30.398 108.632 22.2225C108.4 21.9743 108.4 21.9743 108.163 21.721C97.6098 10.4804 82.4016 3.86543 67.0583 3.28164C48.221 2.7361 31.3436 10.1594 18.4995 23.8591Z" fill="#4F4F7C"/>
<path d="M43.8325 80.2725C46.5055 80.2725 49.1785 80.2725 51.9325 80.2725C51.9325 93.6375 51.9325 107.002 51.9325 120.772C47.7374 120.01 47.7374 120.01 45.9841 119.401C45.4764 119.228 45.4764 119.228 44.9584 119.052C44.17 118.747 44.17 118.747 43.8325 118.41C43.8002 117.915 43.7914 117.418 43.7919 116.922C43.7915 116.6 43.791 116.279 43.7905 115.948C43.7917 115.592 43.793 115.237 43.7942 114.871C43.7942 114.499 43.7941 114.127 43.7941 113.743C43.7943 112.507 43.7969 111.271 43.7996 110.034C43.8002 109.18 43.8007 108.325 43.801 107.471C43.8022 105.447 43.8048 103.423 43.8082 101.4C43.812 99.0966 43.8138 96.7933 43.8155 94.49C43.8191 89.7508 43.8253 85.0116 43.8325 80.2725Z" fill="#474776"/>
<path d="M53.2825 82.9725C55.9555 82.9725 58.6285 82.9725 61.3825 82.9725C61.3825 95.892 61.3825 108.812 61.3825 122.123C55.9825 121.785 55.9825 121.785 53.2825 121.11C53.2825 108.525 53.2825 95.9393 53.2825 82.9725Z" fill="#474776"/>
<path d="M34.3824 79.26C37.0554 79.26 39.7284 79.26 42.4824 79.26C42.4824 91.9568 42.4824 104.654 42.4824 117.735C39.4449 116.723 39.4449 116.723 34.3824 114.023C34.3824 102.551 34.3824 91.0793 34.3824 79.26Z" fill="#474776"/>
<path d="M62.7324 86.6851C65.4054 86.6851 68.0784 86.6851 70.8324 86.6851C70.8324 98.2681 70.8324 109.851 70.8324 121.785C68.2108 122.44 65.4348 122.123 62.7324 122.123C62.7324 110.428 62.7324 98.7338 62.7324 86.6851Z" fill="#474776"/>
<path d="M72.1825 90.735C74.8555 90.735 77.5285 90.735 80.2825 90.735C80.2825 100.425 80.2825 110.114 80.2825 120.097C74.545 121.447 74.545 121.447 72.1825 121.447C72.1825 111.312 72.1825 101.177 72.1825 90.735Z" fill="#474776"/>
<path d="M24.9325 80.2725C27.6055 80.2725 30.2785 80.2725 33.0325 80.2725C33.0325 90.9645 33.0325 101.656 33.0325 112.672C31.1323 111.912 31.1323 111.912 30.2059 111.179C30.0058 111.021 29.8057 110.863 29.5995 110.701C29.3959 110.537 29.1923 110.373 28.9825 110.204C28.7789 110.045 28.5753 109.885 28.3655 109.72C27.774 109.25 27.1896 108.781 26.62 108.285C26.3332 108.05 26.0463 107.814 25.7508 107.572C24.7373 106.365 24.7029 105.495 24.7409 103.989C24.7407 103.732 24.7404 103.475 24.7402 103.211C24.7413 102.365 24.7544 101.52 24.7677 100.674C24.7708 100.086 24.7732 99.4985 24.7749 98.9107C24.7814 97.3664 24.7979 95.8225 24.8166 94.2783C24.8339 92.7015 24.8416 91.1247 24.8501 89.5478C24.8682 86.4559 24.8978 83.3642 24.9325 80.2725Z" fill="#474776"/>
<path d="M81.6324 94.4475C84.3054 94.4475 86.9784 94.4475 89.7324 94.4475C89.7324 101.687 89.7324 108.926 89.7324 116.385C85.9005 118.301 85.9005 118.301 84.3535 118.853C84.0512 118.963 83.7488 119.073 83.4373 119.187C82.6449 119.423 82.6449 119.423 81.6324 119.423C81.6324 111.181 81.6324 102.939 81.6324 94.4475Z" fill="#474776"/>
<path d="M15.4824 82.9725C18.1554 82.9725 20.8284 82.9725 23.5824 82.9725C23.5824 90.2119 23.5824 97.4513 23.5824 104.91C20.7895 103.979 18.5616 99.8196 16.8324 97.485C16.5962 97.1894 16.3599 96.8938 16.1165 96.5892C15.3114 95.1555 15.3079 94.1413 15.3506 92.5306C15.3525 92.2563 15.3544 91.982 15.3564 91.6994C15.3639 90.8293 15.3808 89.9597 15.3981 89.0897C15.4048 88.4973 15.411 87.905 15.4165 87.3126C15.4302 85.8656 15.4566 84.4196 15.4824 82.9725Z" fill="#474776"/>
<path d="M91.0825 97.485C93.7555 97.485 96.4285 97.485 99.1825 97.485C99.2682 99.3123 99.3418 101.133 99.3865 102.96C99.405 103.58 99.4303 104.201 99.4626 104.82C99.7235 109.964 99.7235 109.964 98.4049 111.63C97.4529 112.327 96.5335 112.842 95.47 113.347C94.8474 113.735 94.228 114.128 93.6138 114.529C92.2315 115.372 92.2315 115.372 91.0825 115.372C91.0825 109.47 91.0825 103.567 91.0825 97.485Z" fill="#474776"/>
<path d="M100.195 99.51C103.091 99.51 105.986 99.51 108.97 99.51C108.97 101.535 108.97 101.535 108.524 102.167C108.223 102.428 108.223 102.428 107.915 102.695C107.082 103.455 106.327 104.203 105.616 105.079C104.04 106.95 102.29 108.378 100.195 109.635C100.195 106.294 100.195 102.953 100.195 99.51Z" fill="#4D4D7B"/>
<path d="M81.2949 94.11C84.1907 94.11 87.0864 94.11 90.0699 94.11C90.0699 101.461 90.0699 108.811 90.0699 116.385C89.9585 116.385 89.8472 116.385 89.7324 116.385C89.7324 109.146 89.7324 101.906 89.7324 94.4475C87.0594 94.4475 84.3864 94.4475 81.6324 94.4475C81.6324 102.801 81.6324 111.154 81.6324 119.76C81.521 119.76 81.4097 119.76 81.2949 119.76C81.2949 111.295 81.2949 102.831 81.2949 94.11Z" fill="#79799B"/>
<path d="M52.9449 82.635C55.8407 82.635 58.7364 82.635 61.7199 82.635C61.7199 83.6374 61.7199 84.6398 61.7199 85.6725C61.6086 85.6725 61.4972 85.6725 61.3824 85.6725C61.3824 84.7815 61.3824 83.8905 61.3824 82.9725C58.7094 82.9725 56.0364 82.9725 53.2824 82.9725C53.2824 95.5579 53.2824 108.143 53.2824 121.11C53.1711 121.11 53.0597 121.11 52.9449 121.11C52.9449 108.413 52.9449 95.7165 52.9449 82.635Z" fill="#6E6E93"/>
<path d="M43.495 79.9351C46.3907 79.9351 49.2865 79.9351 52.27 79.9351C52.27 80.6033 52.27 81.2716 52.27 81.9601C52.1586 81.9601 52.0472 81.9601 51.9325 81.9601C51.9325 81.4032 51.9325 80.8463 51.9325 80.2726C49.2595 80.2726 46.5865 80.2726 43.8325 80.2726C43.8325 92.8579 43.8325 105.443 43.8325 118.41C43.7211 118.41 43.6097 118.41 43.495 118.41C43.495 105.713 43.495 93.0166 43.495 79.9351Z" fill="#6E6E93"/>
<path d="M62.395 86.3475C65.2908 86.3475 68.1865 86.3475 71.17 86.3475C71.17 87.4613 71.17 88.575 71.17 89.7225C71.0586 89.7225 70.9473 89.7225 70.8325 89.7225C70.8325 88.7202 70.8325 87.7178 70.8325 86.685C68.1595 86.685 65.4865 86.685 62.7325 86.685C62.7325 98.3794 62.7325 110.074 62.7325 122.123C62.6211 122.123 62.5098 122.123 62.395 122.123C62.395 110.317 62.395 98.511 62.395 86.3475Z" fill="#6E6E93"/>
<path d="M15.1449 82.635C18.0406 82.635 20.9364 82.635 23.9199 82.635C23.9199 90.2085 23.9199 97.782 23.9199 105.585C23.2449 104.91 23.2449 104.91 23.1765 103.996C23.184 103.608 23.1915 103.22 23.1992 102.82C23.2095 102.161 23.2095 102.161 23.2199 101.489C23.2308 101.008 23.2418 100.526 23.2528 100.045C23.2616 99.5544 23.2702 99.0635 23.2784 98.5726C23.3009 97.2798 23.3275 95.987 23.355 94.6943C23.3823 93.3754 23.4057 92.0565 23.4295 90.7376C23.4766 88.1492 23.5285 85.5608 23.5824 82.9725C20.9094 82.9725 18.2364 82.9725 15.4824 82.9725C15.4824 86.8706 15.4824 90.7688 15.4824 94.785C15.371 94.785 15.2596 94.785 15.1449 94.785C15.1449 90.7755 15.1449 86.766 15.1449 82.635Z" fill="#7F7F9F"/>
<path d="M71.845 90.3975C74.7407 90.3975 77.6365 90.3975 80.62 90.3975C80.62 91.3998 80.62 92.4022 80.62 93.435C80.5086 93.435 80.3972 93.435 80.2825 93.435C80.2825 92.544 80.2825 91.653 80.2825 90.735C77.6095 90.735 74.9365 90.735 72.1825 90.735C72.1825 100.87 72.1825 111.005 72.1825 121.447C72.4052 121.559 72.628 121.67 72.8575 121.785C72.5233 121.785 72.1892 121.785 71.845 121.785C71.845 111.427 71.845 101.069 71.845 90.3975Z" fill="#6F6F94"/>
<path d="M34.0449 78.9225C36.8293 78.9225 39.6137 78.9225 42.4824 78.9225C42.4824 79.0339 42.4824 79.1452 42.4824 79.26C39.8094 79.26 37.1364 79.26 34.3824 79.26C34.3824 90.6202 34.3824 101.98 34.3824 113.685C34.271 113.685 34.1597 113.685 34.0449 113.685C34.0449 102.213 34.0449 90.7417 34.0449 78.9225Z" fill="#6E6E93"/>
<path d="M90.745 97.1475C93.6407 97.1475 96.5365 97.1475 99.52 97.1475C99.52 101.491 99.52 105.835 99.52 110.31C99.4086 110.31 99.2972 110.31 99.1825 110.31C99.1825 106.078 99.1825 101.845 99.1825 97.485C96.5095 97.485 93.8365 97.485 91.0825 97.485C91.1939 103.499 91.3052 109.513 91.42 115.71C91.1972 115.71 90.9745 115.71 90.745 115.71C90.745 109.584 90.745 103.459 90.745 97.1475Z" fill="#777799"/>
<path d="M11.095 86.3475C12.2087 86.3475 13.3225 86.3475 14.47 86.3475C14.47 88.575 14.47 90.8025 14.47 93.0975C13.3769 92.0044 12.8391 90.9145 12.2129 89.5327C12.1048 89.3015 11.9967 89.0702 11.8853 88.832C11.095 87.1148 11.095 87.1148 11.095 86.3475Z" fill="#5B5B85"/>
<path d="M42.4824 78.9225C42.5938 78.9225 42.7052 78.9225 42.8199 78.9225C42.8199 91.842 42.8199 104.761 42.8199 118.072C42.7085 118.072 42.5972 118.072 42.4824 118.072C42.4824 105.153 42.4824 92.2335 42.4824 78.9225Z" fill="#8D8DAA"/>
<path d="M51.9325 81.96C52.0439 81.96 52.1552 81.96 52.27 81.96C52.27 94.7681 52.27 107.576 52.27 120.772C52.1586 120.772 52.0472 120.772 51.9325 120.772C51.9325 107.964 51.9325 95.1562 51.9325 81.96Z" fill="#8D8DAA"/>
<path d="M61.3824 85.6725C61.4938 85.6725 61.6052 85.6725 61.7199 85.6725C61.7199 97.701 61.7199 109.729 61.7199 122.122C61.6086 122.122 61.4972 122.122 61.3824 122.122C61.3824 110.094 61.3824 98.0655 61.3824 85.6725Z" fill="#8C8CAA"/>
<path d="M24.595 79.9351C27.3793 79.9351 30.1637 79.9351 33.0325 79.9351C33.0325 80.0464 33.0325 80.1578 33.0325 80.2726C30.3595 80.2726 27.6865 80.2726 24.9325 80.2726C24.9325 88.9598 24.9325 97.6471 24.9325 106.598C24.8211 106.598 24.7097 106.598 24.595 106.598C24.595 97.7989 24.595 89.0003 24.595 79.9351Z" fill="#6E6E93"/>
<path d="M33.0324 79.9351C33.1438 79.9351 33.2552 79.9351 33.3699 79.9351C33.3699 90.8498 33.3699 101.765 33.3699 113.01C33.1472 112.899 32.9244 112.787 32.6949 112.673C32.8063 101.869 32.9177 91.0658 33.0324 79.9351Z" fill="#8D8DAA"/>
<path d="M70.8325 89.7225C70.9439 89.7225 71.0553 89.7225 71.17 89.7225C71.17 100.303 71.17 110.884 71.17 121.785C71.0586 121.785 70.9473 121.785 70.8325 121.785C70.8325 111.204 70.8325 100.624 70.8325 89.7225Z" fill="#8C8CA9"/>
<path d="M101.545 15.81C101.845 16.0353 102.145 16.2607 102.453 16.4929C114.411 25.7954 121.854 39.2446 124.833 53.9475C124.916 54.349 125 54.7506 125.086 55.1643C126.245 62.0304 125.829 69.4145 124.495 76.2225C124.45 76.4667 124.405 76.7109 124.358 76.9625C122.686 85.8091 118.569 94.474 113.02 101.535C112.795 101.835 112.569 102.134 112.337 102.443C102.592 114.97 87.8389 123.023 72.2036 125.265C66.346 125.926 59.7332 126.057 53.9575 124.822C53.6666 124.761 53.3757 124.699 53.076 124.635C48.2192 123.578 43.638 122.142 39.1075 120.097C38.8658 119.989 38.6241 119.88 38.375 119.768C34.9072 118.18 31.7378 116.249 28.645 114.022C28.453 113.886 28.261 113.749 28.0631 113.608C14.8531 104.084 6.5727 89.3835 3.75175 73.4987C1.47169 57.6025 5.52724 41.2892 14.9562 28.3029C24.642 15.4192 38.2247 7.16627 53.9575 3.99745C54.3708 3.91392 54.7841 3.83039 55.21 3.74433C71.2868 1.09551 88.7912 5.78792 101.545 15.81ZM50.1606 8.25839C49.8308 8.34595 49.5009 8.4335 49.161 8.52371C45.8978 9.42562 42.8345 10.6404 39.7825 12.0975C39.5146 12.2245 39.2466 12.3515 38.9706 12.4824C33.582 15.0767 28.9083 18.4165 24.595 22.56C24.3468 22.7924 24.3468 22.7924 24.0935 23.0296C18.612 28.1758 14.8265 34.1013 11.6013 40.8482C11.487 41.0868 11.3726 41.3254 11.2549 41.5713C10.6965 42.7714 10.3137 43.8732 10.0825 45.1725C12.756 44.9967 15.347 44.6755 17.9716 44.1389C18.3304 44.0656 18.6891 43.9924 19.0588 43.917C31.6278 41.2748 43.3449 36.7451 55.061 31.6118C72.9805 23.7822 88.7008 20.9369 107.475 28.0071C108.195 28.2621 108.901 28.4656 109.645 28.635C104.878 21.9151 98.3585 16.8473 91.0825 13.11C90.8596 12.9935 90.6367 12.877 90.407 12.757C82.1421 8.481 73.3152 6.58314 64.0403 6.57089C63.6166 6.57026 63.1929 6.56964 62.7563 6.569C58.4732 6.62067 54.3006 7.15687 50.1606 8.25839ZM53.6045 34.9546C42.176 39.9306 30.6924 44.5476 18.3639 46.7019C17.5483 46.8524 16.7437 47.0284 15.936 47.2159C14.4922 47.545 13.0504 47.7465 11.5802 47.9146C11.2144 47.9584 11.2144 47.9584 10.8412 48.003C10.251 48.0733 9.66052 48.1418 9.07001 48.21C6.56419 54.4745 6.59184 61.1311 6.70751 67.785C16.6715 65.1917 26.067 61.0329 35.4794 56.9322C39.1549 55.3389 42.8384 53.8718 46.638 52.5975C47.0022 52.4752 47.3664 52.353 47.7417 52.2271C66.7055 46.0515 83.2529 52.4841 100.598 60.0712C111.049 65.2347 111.049 65.2347 122.133 67.785C122.313 57.4297 120.851 48.4641 116.463 38.9798C116.102 38.1837 115.779 37.3826 115.462 36.5688C114.132 33.506 112.18 32.3769 109.118 31.1662C107.618 30.6179 106.106 30.1235 104.583 29.6475C104.211 29.5291 103.839 29.4108 103.456 29.2889C98.4461 27.713 93.6458 26.4974 88.3825 26.2725C88.1507 26.261 87.919 26.2495 87.6802 26.2377C75.5925 25.6997 64.4768 30.2118 53.6045 34.9546ZM52.945 53.61C52.6782 53.6678 52.4114 53.7256 52.1365 53.7851C44.3205 55.5126 37.0077 58.9738 29.6928 62.1351C25.002 64.1612 20.3018 66.0815 15.4825 67.785C14.8404 68.0156 14.1984 68.2463 13.5564 68.4771C12.94 68.6968 12.3235 68.9162 11.7067 69.135C11.4297 69.2334 11.1526 69.3318 10.8671 69.4331C9.60029 69.875 8.37475 70.2718 7.04501 70.485C7.57278 78.6489 7.57278 78.6489 10.7575 85.6725C11.9959 85.7208 13.2304 85.6867 14.47 85.6725C14.47 84.4473 14.47 83.2222 14.47 81.96C17.5885 81.96 20.707 81.96 23.92 81.96C23.92 81.069 23.92 80.178 23.92 79.26C27.0385 79.26 30.157 79.26 33.37 79.26C33.37 78.9258 33.37 78.5917 33.37 78.2475C36.7113 78.2475 40.0525 78.2475 43.495 78.2475C43.495 78.5816 43.495 78.9157 43.495 79.26C46.6135 79.26 49.732 79.26 52.945 79.26C52.945 80.151 52.945 81.042 52.945 81.96C56.0635 81.96 59.182 81.96 62.395 81.96C62.395 83.1851 62.395 84.4102 62.395 85.6725C65.5135 85.6725 68.632 85.6725 71.845 85.6725C71.845 87.009 71.845 88.3455 71.845 89.7225C74.9635 89.7225 78.082 89.7225 81.295 89.7225C81.295 90.9476 81.295 92.1727 81.295 93.435C84.4135 93.435 87.532 93.435 90.745 93.435C90.745 94.4373 90.745 95.4397 90.745 96.4725C93.8635 96.4725 96.982 96.4725 100.195 96.4725C100.195 97.2521 100.195 98.0317 100.195 98.835C103.314 98.835 106.432 98.835 109.645 98.835C109.756 99.2805 109.868 99.726 109.983 100.185C115.986 91.9754 121.978 80.9905 121.795 70.485C121.479 70.3984 121.162 70.3118 120.837 70.2226C112.947 68.0121 105.467 64.881 97.9648 61.6288C83.2602 55.2619 69.0602 49.9902 52.945 53.61ZM34.045 78.9225C34.045 90.3941 34.045 101.866 34.045 113.685C39.0143 116.636 39.0143 116.636 42.82 118.072C42.82 105.153 42.82 92.2335 42.82 78.9225C39.9243 78.9225 37.0285 78.9225 34.045 78.9225ZM24.595 79.935C24.5109 83.3588 24.4429 86.782 24.4027 90.2066C24.3833 91.7971 24.3571 93.3868 24.3149 94.9769C24.2744 96.5131 24.2524 98.0487 24.2428 99.5855C24.2359 100.17 24.2226 100.754 24.2025 101.339C24.0277 104.681 24.0277 104.681 25.4006 107.616C26.3352 108.387 27.267 109.017 28.3075 109.635C28.7461 109.973 29.1806 110.316 29.6061 110.67C29.9673 110.951 30.329 111.232 30.6911 111.512C30.878 111.66 31.0648 111.807 31.2573 111.959C32.2032 112.763 32.2032 112.763 33.37 113.01C33.37 102.095 33.37 91.1805 33.37 79.935C30.4743 79.935 27.5785 79.935 24.595 79.935ZM43.495 79.935C43.495 92.6317 43.495 105.328 43.495 118.41C48.9412 120.446 48.9412 120.446 52.27 120.772C52.27 107.296 52.27 93.8197 52.27 79.935C49.3743 79.935 46.4785 79.935 43.495 79.935ZM15.145 82.635C15.0825 84.2925 15.0289 85.9458 14.9967 87.6035C14.9832 88.1653 14.9649 88.727 14.9413 89.2884C14.7758 93.3337 15.1188 95.6759 17.845 98.835C18.1238 99.2011 18.4018 99.5679 18.6782 99.9358C19.0176 100.341 19.0176 100.341 19.3638 100.754C19.6144 101.054 19.8649 101.353 20.1231 101.662C21.8137 103.658 21.8137 103.658 23.5825 105.585C23.6939 105.585 23.8053 105.585 23.92 105.585C23.92 98.0115 23.92 90.438 23.92 82.635C21.0243 82.635 18.1285 82.635 15.145 82.635ZM52.945 82.635C52.945 95.3317 52.945 108.028 52.945 121.11C56.3999 121.962 56.3999 121.962 61.72 122.122C61.72 109.092 61.72 96.0607 61.72 82.635C58.8243 82.635 55.9285 82.635 52.945 82.635ZM11.095 86.3475C11.8165 88.7924 12.8591 90.8926 14.1325 93.0975C14.2439 93.0975 14.3553 93.0975 14.47 93.0975C14.47 90.87 14.47 88.6425 14.47 86.3475C13.3563 86.3475 12.2425 86.3475 11.095 86.3475ZM62.395 86.3475C62.395 98.1532 62.395 109.959 62.395 122.122C66.8109 122.241 66.8109 122.241 71.17 121.785C71.17 110.091 71.17 98.3962 71.17 86.3475C68.2743 86.3475 65.3785 86.3475 62.395 86.3475ZM71.845 90.3975C71.845 100.755 71.845 111.113 71.845 121.785C76.487 121.204 76.487 121.204 80.62 120.097C80.62 110.296 80.62 100.495 80.62 90.3975C77.7243 90.3975 74.8285 90.3975 71.845 90.3975ZM81.295 94.11C81.295 102.574 81.295 111.039 81.295 119.76C84.2502 118.717 87.2062 117.658 90.07 116.385C90.07 109.034 90.07 101.683 90.07 94.11C87.1743 94.11 84.2785 94.11 81.295 94.11ZM90.745 97.1475C90.745 103.273 90.745 109.399 90.745 115.71C92.0521 115.187 93.1644 114.658 94.3731 113.959C94.6986 113.773 95.024 113.588 95.3593 113.396C95.7299 113.157 96.1006 112.919 96.4825 112.672C96.7472 112.55 97.0119 112.428 97.2846 112.302C98.308 111.726 98.854 111.287 99.52 110.31C100.035 108.126 99.804 105.803 99.7098 103.581C99.6946 102.958 99.6807 102.334 99.6683 101.711C99.6375 100.188 99.5782 98.6704 99.52 97.1475C96.6243 97.1475 93.7285 97.1475 90.745 97.1475ZM100.195 99.51C100.195 102.851 100.195 106.192 100.195 109.635C101.666 108.654 102.944 107.703 104.224 106.513C104.399 106.352 104.574 106.19 104.755 106.023C106.149 104.722 107.418 103.343 108.633 101.872C108.744 101.761 108.855 101.65 108.97 101.535C108.97 100.867 108.97 100.198 108.97 99.51C106.074 99.51 103.179 99.51 100.195 99.51Z" fill="#FAFAFB"/>
<path d="M97.8325 17.16C98.188 17.4167 98.5434 17.6733 98.9096 17.9378C101.402 19.7811 103.63 21.8511 105.827 24.0365C106.09 24.2975 106.353 24.5585 106.624 24.8274C107.82 26.0391 108.805 27.1432 109.645 28.635C106.843 27.7029 106.843 27.7029 105.685 27.3076C95.7449 23.9177 85.6287 22.0147 75.22 24.585C74.8626 24.6665 74.8626 24.6665 74.4979 24.7496C66.6745 26.5348 59.3776 29.7037 52.0516 32.9008C39.4695 38.3882 25.7309 44.0679 11.8755 45.0459C11.3619 45.0838 11.3619 45.0838 10.8379 45.1224C10.5887 45.1389 10.3394 45.1554 10.0825 45.1725C10.7165 42.7986 11.5593 40.6506 12.6771 38.4647C12.9016 38.0225 12.9016 38.0225 13.1306 37.5713C14.3262 35.2541 15.6181 33.0976 17.17 30.9975C17.4271 30.6407 17.6843 30.284 17.9492 29.9164C23.2146 22.8013 29.8963 17.13 37.7575 13.11C37.9876 12.9917 38.2177 12.8734 38.4548 12.7515C56.9841 3.34595 80.9805 4.4424 97.8325 17.16Z" fill="#B2D6DE"/>
<path d="M106.903 15.8733C107.483 16.4105 108.059 16.9524 108.632 17.4975C108.916 17.7643 108.916 17.7643 109.205 18.0364C119.984 28.248 127.094 42.4927 128.545 57.3225C128.582 57.6753 128.619 58.0282 128.657 58.3917C130.189 75.166 125.143 92.2627 114.37 105.248C113.393 106.409 112.379 107.523 111.332 108.623C111.155 108.811 110.977 109 110.794 109.195C100.582 119.974 86.3373 127.084 71.5075 128.535C71.1546 128.572 70.8018 128.609 70.4383 128.647C53.664 130.179 36.5672 125.133 23.5825 114.36C22.4212 113.383 21.3073 112.369 20.2075 111.323C19.9242 111.056 19.9242 111.056 19.6353 110.784C14.9453 106.341 11.1699 101.458 8.05746 95.7975C7.94277 95.589 7.82807 95.3805 7.70991 95.1657C-0.619736 79.7811 -2.09377 61.981 2.77348 45.2569C5.68751 35.7984 10.6973 27.3575 17.5075 20.1975C17.6853 20.0087 17.8631 19.8199 18.0463 19.6253C22.4893 14.9354 27.3721 11.16 33.0325 8.04751C33.241 7.93281 33.4495 7.81812 33.6643 7.69995C57.1799 -5.03207 86.8109 -1.74826 106.903 15.8733ZM18.4995 23.8591C10.9086 32.2775 6.23876 42.9316 4.00746 53.9475C3.92393 54.3491 3.8404 54.7506 3.75433 55.1643C2.59524 62.0304 3.01123 69.4145 4.34496 76.2225C4.39015 76.4667 4.43534 76.711 4.4819 76.9626C6.15394 85.8092 10.2714 94.474 15.82 101.535C16.0453 101.835 16.2707 102.135 16.5029 102.443C25.8054 114.401 39.2546 121.844 53.9575 124.823C54.359 124.906 54.7606 124.99 55.1743 125.076C62.0404 126.235 69.4245 125.819 76.2325 124.485C76.4767 124.44 76.7209 124.395 76.9726 124.348C85.8191 122.676 94.484 118.559 101.545 113.01C101.845 112.785 102.144 112.559 102.453 112.327C114.98 102.582 123.033 87.8289 125.275 72.1936C126.005 65.6285 125.925 58.7205 124.495 52.26C124.4 51.8277 124.4 51.8277 124.303 51.3866C121.769 40.3345 116.486 30.398 108.632 22.2225C108.4 21.9743 108.4 21.9743 108.163 21.721C97.6098 10.4804 82.4016 3.86543 67.0583 3.28164C48.221 2.7361 31.3436 10.1594 18.4995 23.8591Z" fill="#4F4F7C"/>
<path d="M43.8325 80.2725C46.5055 80.2725 49.1785 80.2725 51.9325 80.2725C51.9325 93.6375 51.9325 107.002 51.9325 120.772C47.7374 120.01 47.7374 120.01 45.9841 119.401C45.4764 119.228 45.4764 119.228 44.9584 119.052C44.17 118.747 44.17 118.747 43.8325 118.41C43.8002 117.915 43.7914 117.418 43.7919 116.922C43.7915 116.6 43.791 116.279 43.7905 115.948C43.7917 115.592 43.793 115.237 43.7942 114.871C43.7942 114.499 43.7941 114.127 43.7941 113.743C43.7943 112.507 43.7969 111.271 43.7996 110.034C43.8002 109.18 43.8007 108.325 43.801 107.471C43.8022 105.447 43.8048 103.423 43.8082 101.4C43.812 99.0966 43.8138 96.7933 43.8155 94.49C43.8191 89.7508 43.8253 85.0116 43.8325 80.2725Z" fill="#474776"/>
<path d="M53.2825 82.9725C55.9555 82.9725 58.6285 82.9725 61.3825 82.9725C61.3825 95.892 61.3825 108.812 61.3825 122.123C55.9825 121.785 55.9825 121.785 53.2825 121.11C53.2825 108.525 53.2825 95.9393 53.2825 82.9725Z" fill="#474776"/>
<path d="M34.3824 79.26C37.0554 79.26 39.7284 79.26 42.4824 79.26C42.4824 91.9568 42.4824 104.654 42.4824 117.735C39.4449 116.723 39.4449 116.723 34.3824 114.023C34.3824 102.551 34.3824 91.0793 34.3824 79.26Z" fill="#474776"/>
<path d="M62.7324 86.6851C65.4054 86.6851 68.0784 86.6851 70.8324 86.6851C70.8324 98.2681 70.8324 109.851 70.8324 121.785C68.2108 122.44 65.4348 122.123 62.7324 122.123C62.7324 110.428 62.7324 98.7338 62.7324 86.6851Z" fill="#474776"/>
<path d="M72.1825 90.735C74.8555 90.735 77.5285 90.735 80.2825 90.735C80.2825 100.425 80.2825 110.114 80.2825 120.097C74.545 121.447 74.545 121.447 72.1825 121.447C72.1825 111.312 72.1825 101.177 72.1825 90.735Z" fill="#474776"/>
<path d="M24.9325 80.2725C27.6055 80.2725 30.2785 80.2725 33.0325 80.2725C33.0325 90.9645 33.0325 101.656 33.0325 112.672C31.1323 111.912 31.1323 111.912 30.2059 111.179C30.0058 111.021 29.8057 110.863 29.5995 110.701C29.3959 110.537 29.1923 110.373 28.9825 110.204C28.7789 110.045 28.5753 109.885 28.3655 109.72C27.774 109.25 27.1896 108.781 26.62 108.285C26.3332 108.05 26.0463 107.814 25.7508 107.572C24.7373 106.365 24.7029 105.495 24.7409 103.989C24.7407 103.732 24.7404 103.475 24.7402 103.211C24.7413 102.365 24.7544 101.52 24.7677 100.674C24.7708 100.086 24.7732 99.4985 24.7749 98.9107C24.7814 97.3664 24.7979 95.8225 24.8166 94.2783C24.8339 92.7015 24.8416 91.1247 24.8501 89.5478C24.8682 86.4559 24.8978 83.3642 24.9325 80.2725Z" fill="#474776"/>
<path d="M81.6324 94.4475C84.3054 94.4475 86.9784 94.4475 89.7324 94.4475C89.7324 101.687 89.7324 108.926 89.7324 116.385C85.9005 118.301 85.9005 118.301 84.3535 118.853C84.0512 118.963 83.7488 119.073 83.4373 119.187C82.6449 119.423 82.6449 119.423 81.6324 119.423C81.6324 111.181 81.6324 102.939 81.6324 94.4475Z" fill="#474776"/>
<path d="M15.4824 82.9725C18.1554 82.9725 20.8284 82.9725 23.5824 82.9725C23.5824 90.2119 23.5824 97.4513 23.5824 104.91C20.7895 103.979 18.5616 99.8196 16.8324 97.485C16.5962 97.1894 16.3599 96.8938 16.1165 96.5892C15.3114 95.1555 15.3079 94.1413 15.3506 92.5306C15.3525 92.2563 15.3544 91.982 15.3564 91.6994C15.3639 90.8293 15.3808 89.9597 15.3981 89.0897C15.4048 88.4973 15.411 87.905 15.4165 87.3126C15.4302 85.8656 15.4566 84.4196 15.4824 82.9725Z" fill="#474776"/>
<path d="M91.0825 97.485C93.7555 97.485 96.4285 97.485 99.1825 97.485C99.2682 99.3123 99.3418 101.133 99.3865 102.96C99.405 103.58 99.4303 104.201 99.4626 104.82C99.7235 109.964 99.7235 109.964 98.4049 111.63C97.4529 112.327 96.5335 112.842 95.47 113.347C94.8474 113.735 94.228 114.128 93.6138 114.529C92.2315 115.372 92.2315 115.372 91.0825 115.372C91.0825 109.47 91.0825 103.567 91.0825 97.485Z" fill="#474776"/>
<path d="M100.195 99.51C103.091 99.51 105.986 99.51 108.97 99.51C108.97 101.535 108.97 101.535 108.524 102.167C108.223 102.428 108.223 102.428 107.915 102.695C107.082 103.455 106.327 104.203 105.616 105.079C104.04 106.95 102.29 108.378 100.195 109.635C100.195 106.294 100.195 102.953 100.195 99.51Z" fill="#4D4D7B"/>
<path d="M81.2949 94.11C84.1907 94.11 87.0864 94.11 90.0699 94.11C90.0699 101.461 90.0699 108.811 90.0699 116.385C89.9585 116.385 89.8472 116.385 89.7324 116.385C89.7324 109.146 89.7324 101.906 89.7324 94.4475C87.0594 94.4475 84.3864 94.4475 81.6324 94.4475C81.6324 102.801 81.6324 111.154 81.6324 119.76C81.521 119.76 81.4097 119.76 81.2949 119.76C81.2949 111.295 81.2949 102.831 81.2949 94.11Z" fill="#79799B"/>
<path d="M52.9449 82.635C55.8407 82.635 58.7364 82.635 61.7199 82.635C61.7199 83.6374 61.7199 84.6398 61.7199 85.6725C61.6086 85.6725 61.4972 85.6725 61.3824 85.6725C61.3824 84.7815 61.3824 83.8905 61.3824 82.9725C58.7094 82.9725 56.0364 82.9725 53.2824 82.9725C53.2824 95.5579 53.2824 108.143 53.2824 121.11C53.1711 121.11 53.0597 121.11 52.9449 121.11C52.9449 108.413 52.9449 95.7165 52.9449 82.635Z" fill="#6E6E93"/>
<path d="M43.495 79.9351C46.3907 79.9351 49.2865 79.9351 52.27 79.9351C52.27 80.6033 52.27 81.2716 52.27 81.9601C52.1586 81.9601 52.0472 81.9601 51.9325 81.9601C51.9325 81.4032 51.9325 80.8463 51.9325 80.2726C49.2595 80.2726 46.5865 80.2726 43.8325 80.2726C43.8325 92.8579 43.8325 105.443 43.8325 118.41C43.7211 118.41 43.6097 118.41 43.495 118.41C43.495 105.713 43.495 93.0166 43.495 79.9351Z" fill="#6E6E93"/>
<path d="M62.395 86.3475C65.2908 86.3475 68.1865 86.3475 71.17 86.3475C71.17 87.4613 71.17 88.575 71.17 89.7225C71.0586 89.7225 70.9473 89.7225 70.8325 89.7225C70.8325 88.7202 70.8325 87.7178 70.8325 86.685C68.1595 86.685 65.4865 86.685 62.7325 86.685C62.7325 98.3794 62.7325 110.074 62.7325 122.123C62.6211 122.123 62.5098 122.123 62.395 122.123C62.395 110.317 62.395 98.511 62.395 86.3475Z" fill="#6E6E93"/>
<path d="M15.1449 82.635C18.0406 82.635 20.9364 82.635 23.9199 82.635C23.9199 90.2085 23.9199 97.782 23.9199 105.585C23.2449 104.91 23.2449 104.91 23.1765 103.996C23.184 103.608 23.1915 103.22 23.1992 102.82C23.2095 102.161 23.2095 102.161 23.2199 101.489C23.2308 101.008 23.2418 100.526 23.2528 100.045C23.2616 99.5544 23.2702 99.0635 23.2784 98.5726C23.3009 97.2798 23.3275 95.987 23.355 94.6943C23.3823 93.3754 23.4057 92.0565 23.4295 90.7376C23.4766 88.1492 23.5285 85.5608 23.5824 82.9725C20.9094 82.9725 18.2364 82.9725 15.4824 82.9725C15.4824 86.8706 15.4824 90.7688 15.4824 94.785C15.371 94.785 15.2596 94.785 15.1449 94.785C15.1449 90.7755 15.1449 86.766 15.1449 82.635Z" fill="#7F7F9F"/>
<path d="M71.845 90.3975C74.7407 90.3975 77.6365 90.3975 80.62 90.3975C80.62 91.3998 80.62 92.4022 80.62 93.435C80.5086 93.435 80.3972 93.435 80.2825 93.435C80.2825 92.544 80.2825 91.653 80.2825 90.735C77.6095 90.735 74.9365 90.735 72.1825 90.735C72.1825 100.87 72.1825 111.005 72.1825 121.447C72.4052 121.559 72.628 121.67 72.8575 121.785C72.5233 121.785 72.1892 121.785 71.845 121.785C71.845 111.427 71.845 101.069 71.845 90.3975Z" fill="#6F6F94"/>
<path d="M34.0449 78.9225C36.8293 78.9225 39.6137 78.9225 42.4824 78.9225C42.4824 79.0339 42.4824 79.1452 42.4824 79.26C39.8094 79.26 37.1364 79.26 34.3824 79.26C34.3824 90.6202 34.3824 101.98 34.3824 113.685C34.271 113.685 34.1597 113.685 34.0449 113.685C34.0449 102.213 34.0449 90.7417 34.0449 78.9225Z" fill="#6E6E93"/>
<path d="M90.745 97.1475C93.6407 97.1475 96.5365 97.1475 99.52 97.1475C99.52 101.491 99.52 105.835 99.52 110.31C99.4086 110.31 99.2972 110.31 99.1825 110.31C99.1825 106.078 99.1825 101.845 99.1825 97.485C96.5095 97.485 93.8365 97.485 91.0825 97.485C91.1939 103.499 91.3052 109.513 91.42 115.71C91.1972 115.71 90.9745 115.71 90.745 115.71C90.745 109.584 90.745 103.459 90.745 97.1475Z" fill="#777799"/>
<path d="M11.095 86.3475C12.2087 86.3475 13.3225 86.3475 14.47 86.3475C14.47 88.575 14.47 90.8025 14.47 93.0975C13.3769 92.0044 12.8391 90.9145 12.2129 89.5327C12.1048 89.3015 11.9967 89.0702 11.8853 88.832C11.095 87.1148 11.095 87.1148 11.095 86.3475Z" fill="#5B5B85"/>
<path d="M42.4824 78.9225C42.5938 78.9225 42.7052 78.9225 42.8199 78.9225C42.8199 91.842 42.8199 104.761 42.8199 118.072C42.7085 118.072 42.5972 118.072 42.4824 118.072C42.4824 105.153 42.4824 92.2335 42.4824 78.9225Z" fill="#8D8DAA"/>
<path d="M51.9325 81.96C52.0439 81.96 52.1552 81.96 52.27 81.96C52.27 94.7681 52.27 107.576 52.27 120.772C52.1586 120.772 52.0472 120.772 51.9325 120.772C51.9325 107.964 51.9325 95.1562 51.9325 81.96Z" fill="#8D8DAA"/>
<path d="M61.3824 85.6725C61.4938 85.6725 61.6052 85.6725 61.7199 85.6725C61.7199 97.701 61.7199 109.729 61.7199 122.122C61.6086 122.122 61.4972 122.122 61.3824 122.122C61.3824 110.094 61.3824 98.0655 61.3824 85.6725Z" fill="#8C8CAA"/>
<path d="M24.595 79.9351C27.3793 79.9351 30.1637 79.9351 33.0325 79.9351C33.0325 80.0464 33.0325 80.1578 33.0325 80.2726C30.3595 80.2726 27.6865 80.2726 24.9325 80.2726C24.9325 88.9598 24.9325 97.6471 24.9325 106.598C24.8211 106.598 24.7097 106.598 24.595 106.598C24.595 97.7989 24.595 89.0003 24.595 79.9351Z" fill="#6E6E93"/>
<path d="M33.0324 79.9351C33.1438 79.9351 33.2552 79.9351 33.3699 79.9351C33.3699 90.8498 33.3699 101.765 33.3699 113.01C33.1472 112.899 32.9244 112.787 32.6949 112.673C32.8063 101.869 32.9177 91.0658 33.0324 79.9351Z" fill="#8D8DAA"/>
<path d="M70.8325 89.7225C70.9439 89.7225 71.0553 89.7225 71.17 89.7225C71.17 100.303 71.17 110.884 71.17 121.785C71.0586 121.785 70.9473 121.785 70.8325 121.785C70.8325 111.204 70.8325 100.624 70.8325 89.7225Z" fill="#8C8CA9"/>
<path d="M80.2825 93.4351C80.3938 93.4351 80.5052 93.4351 80.62 93.4351C80.62 102.234 80.62 111.032 80.62 120.098C80.5086 120.098 80.3972 120.098 80.2825 120.098C80.2825 111.299 80.2825 102.5 80.2825 93.4351Z" fill="#8D8DAA"/>
<path d="M80.2825 93.4351C80.3938 93.4351 80.5052 93.4351 80.62 93.4351C80.62 102.234 80.62 111.032 80.62 120.098C80.5086 120.098 80.3972 120.098 80.2825 120.098C80.2825 111.299 80.2825 102.5 80.2825 93.4351Z" fill="#8D8DAA"/>
</svg>
